<?xml version="1.0" encoding="UTF-8" standalone="no"?>
<!-- Created with Inkscape (http://www.inkscape.org/) -->

<svg
   xmlns:dc="http://purl.org/dc/elements/1.1/"
   xmlns:cc="http://creativecommons.org/ns#"
   xmlns:rdf="http://www.w3.org/1999/02/22-rdf-syntax-ns#"
   xmlns:svg="http://www.w3.org/2000/svg"
   xmlns="http://www.w3.org/2000/svg"
   xmlns:sodipodi="http://sodipodi.sourceforge.net/DTD/sodipodi-0.dtd"
   xmlns:inkscape="http://www.inkscape.org/namespaces/inkscape"
   width="744.09448819"
   height="1052.3622047"
   id="svg2"
   version="1.1"
   inkscape:version="0.47 r22583"
   sodipodi:docname="vzp-logo.svg">
  <defs
     id="defs4">
    <inkscape:perspective
       sodipodi:type="inkscape:persp3d"
       inkscape:vp_x="0 : 526.18109 : 1"
       inkscape:vp_y="0 : 1000 : 0"
       inkscape:vp_z="744.09448 : 526.18109 : 1"
       inkscape:persp3d-origin="372.04724 : 350.78739 : 1"
       id="perspective10" />
    <inkscape:perspective
       id="perspective2884"
       inkscape:persp3d-origin="0.5 : 0.33333333 : 1"
       inkscape:vp_z="1 : 0.5 : 1"
       inkscape:vp_y="0 : 1000 : 0"
       inkscape:vp_x="0 : 0.5 : 1"
       sodipodi:type="inkscape:persp3d" />
    <inkscape:perspective
       id="perspective3719"
       inkscape:persp3d-origin="0.5 : 0.33333333 : 1"
       inkscape:vp_z="1 : 0.5 : 1"
       inkscape:vp_y="0 : 1000 : 0"
       inkscape:vp_x="0 : 0.5 : 1"
       sodipodi:type="inkscape:persp3d" />
    <inkscape:perspective
       id="perspective2823"
       inkscape:persp3d-origin="0.5 : 0.33333333 : 1"
       inkscape:vp_z="1 : 0.5 : 1"
       inkscape:vp_y="0 : 1000 : 0"
       inkscape:vp_x="0 : 0.5 : 1"
       sodipodi:type="inkscape:persp3d" />
  </defs>
  <sodipodi:namedview
     id="base"
     pagecolor="#ffffff"
     bordercolor="#666666"
     borderopacity="1.0"
     inkscape:pageopacity="0.0"
     inkscape:pageshadow="2"
     inkscape:zoom="0.7"
     inkscape:cx="325.95748"
     inkscape:cy="376.61708"
     inkscape:document-units="px"
     inkscape:current-layer="layer1"
     showgrid="false"
     inkscape:window-width="1440"
     inkscape:window-height="872"
     inkscape:window-x="0"
     inkscape:window-y="0"
     inkscape:window-maximized="1" />
  <metadata
     id="metadata7">
    <rdf:RDF>
      <cc:Work
         rdf:about="">
        <dc:format>image/svg+xml</dc:format>
        <dc:type
           rdf:resource="http://purl.org/dc/dcmitype/StillImage" />
        <dc:title></dc:title>
      </cc:Work>
    </rdf:RDF>
  </metadata>
  <g
     inkscape:label="Layer 1"
     inkscape:groupmode="layer"
     id="layer1">
    <path
       style="fill:#0088cc;fill-opacity:1"
       d="m 251.94235,366.95196 -0.40906,-19.47183 -10.10719,-7.53933 c -10.63082,-7.92993 -19.39234,-21.49229 -18.39466,-28.47394 0.65511,-4.58442 7.98213,-6.49241 12.03028,-3.13274 2.00276,1.66213 4.13364,0.32083 9.55818,-6.01653 5.78662,-6.76038 6.48081,-8.43535 4.05797,-9.79125 -3.49207,-1.95425 -3.8518,-9.3754 -0.61155,-12.61566 4.03268,-4.03268 11.06634,-2.72305 13.4479,2.50393 1.2067,2.64838 2.84725,4.81524 3.6457,4.81524 2.20571,0 14.16343,-19.56935 15.27423,-24.99693 1.33605,-6.52837 10.33947,-9.77985 14.78122,-5.3381 1.74545,1.74545 3.30732,4.73448 3.47085,6.64228 0.16352,1.90781 1.81787,6.36345 3.67638,9.90142 3.254,6.19456 3.51655,6.30827 7.09242,3.07214 2.04234,-1.8483 3.71334,-5.2197 3.71334,-7.49203 0,-5.24297 3.47637,-8.75412 8.66743,-8.75412 4.8866,0 8.66743,3.44301 8.66743,7.893 0,1.79871 2.15642,7.0425 4.79205,11.65288 2.63561,4.61038 4.80247,6.92411 4.81524,5.14164 0.0299,-4.1779 7.08336,-6.43289 10.70915,-3.42375 1.53818,1.27658 2.82428,4.59848 2.85796,7.38199 0.0589,4.86578 0.17027,4.91677 2.88915,1.32211 1.55534,-2.05634 2.82789,-5.20049 2.82789,-6.98703 0,-1.78651 1.32579,-4.3485 2.94618,-5.69332 3.85779,-3.20168 12.44778,0.44315 12.49747,5.30281 0.0193,1.87657 2.61943,-1.27693 5.77829,-7.00777 3.15887,-5.73085 5.74341,-11.44704 5.74341,-12.70263 0,-3.17738 6.41002,-8.65822 10.12608,-8.65822 4.12471,0 9.13487,5.22438 9.13487,9.52547 0,1.90961 2.29499,7.57818 5.09998,12.59686 4.14211,7.41104 5.42624,8.54187 6.83704,6.02088 2.18863,-3.91086 9.00841,-4.04871 10.48074,-0.21187 1.40676,3.66595 11.60617,-9.8146 12.56727,-16.61015 1.25353,-8.86303 15.04098,-6.24071 15.13631,2.87884 0.0235,2.25384 1.55331,6.06032 3.3995,8.45885 l 3.35668,4.36097 3.55382,-7.25011 c 1.9546,-3.98756 4.19591,-8.55023 4.98067,-10.13926 2.27646,-4.60948 11.02371,-4.73525 13.45438,-0.19346 1.14491,2.13928 1.9187,4.57477 1.71952,5.4122 -0.19917,0.83742 0.79864,3.91415 2.21738,6.83717 l 2.57951,5.31457 4.49795,-7.9188 c 2.47388,-4.35533 4.49796,-8.9961 4.49796,-10.31282 0,-1.3167 1.69856,-3.93118 3.77459,-5.80995 5.33688,-4.82984 13.11345,-2.57146 14.78199,4.2928 0.70422,2.89708 3.63688,9.43441 6.51701,14.52737 4.41097,7.79998 5.39961,8.63663 6.27046,5.30649 1.35375,-5.17679 6.72292,-7.10974 11.48608,-4.1351 3.25976,2.03575 4.24496,1.73767 6.95276,-2.10364 1.73514,-2.46153 2.93316,-5.16067 2.66225,-5.99809 -1.10371,-3.41174 3.83083,-9.07093 7.90942,-9.07093 5.44869,0 8.98489,3.40198 8.98489,8.64387 0,2.2117 2.61662,7.02212 5.81471,10.68983 l 5.81471,6.66859 3.08765,-4.33371 c 3.35618,-4.7106 10.11034,-5.70121 13.78915,-2.02241 3.24025,3.24026 2.88051,10.66141 -0.61156,12.61566 -2.42283,1.3559 -1.72865,3.03087 4.05798,9.79125 5.42454,6.33736 7.55542,7.67866 9.55817,6.01653 4.04816,-3.35967 11.37518,-1.45168 12.03028,3.13274 0.96841,6.77672 -7.75363,20.48231 -17.90832,28.14072 l -9.63048,7.26306 -2.13509,39.55315 -0.75777,-21.18706 -0.75776,-21.18705 -1.16462,21.18705 -1.16461,21.18706 -0.38075,-30.33601 -0.38073,-30.33601 -165.64425,0 -165.64425,0 -0.38073,30.33601 -0.38075,30.33601 -1.12956,-21.18706 -1.12958,-21.18705 -0.96977,21.18705 -0.96977,21.18706 -0.40907,-19.47183 z m -4.08037,-29.43999 c -5.17508,-3.9786 -4.46752,-9.79587 1.20323,-9.89268 3.19175,-0.0545 3.17997,-0.20449 -0.16892,-2.15016 -2.72818,-1.58506 -4.01094,-1.45426 -5.29676,0.5401 -1.41428,2.19361 -2.01243,2.15076 -3.59333,-0.25746 -3.26396,-4.97208 -2.18357,-8.27154 5.17666,-15.80909 8.15416,-8.35063 11.59324,-9.16899 12.4825,-2.97035 0.44734,3.1182 1.77577,4.21561 4.73623,3.91264 2.99539,-0.30654 4.3587,0.85634 5.01228,4.27543 0.4938,2.58308 0.21617,4.27522 -0.61696,3.76033 -0.83312,-0.5149 -2.05919,-0.0553 -2.72458,1.02134 -0.7168,1.15979 1.14493,1.95751 4.56849,1.95751 6.48539,0 9.81677,-3.42123 5.77085,-5.92652 -1.4599,-0.90402 -2.86707,-4.49075 -3.12704,-7.97057 -0.98947,-13.24505 -1.48336,-16.59257 -2.41648,-16.37833 -3.10186,0.71214 -9.60927,-3.2193 -10.6248,-6.41893 -1.44573,-4.55512 -6.37592,-4.93947 -8.03113,-0.62609 -0.72223,1.88214 0.0688,3.83772 1.98656,4.91094 4.91004,2.74781 3.9192,5.63601 -5.70986,16.64346 -8.17269,9.34262 -9.16448,9.9276 -12.18976,7.18977 -3.53423,-3.19844 -7.80512,-3.97327 -7.80512,-1.41599 0,7.70014 17.80946,29.34578 24.03352,29.21038 1.08283,-0.0235 -0.11672,-1.64612 -2.66558,-3.60573 z m 356.70896,-2.30118 c 6.26977,-5.16808 14.84667,-18.63046 14.84667,-23.30347 0,-2.55728 -4.27088,-1.78245 -7.80512,1.41599 -3.02528,2.73783 -4.01706,2.15285 -12.18977,-7.18977 -9.62904,-11.00745 -10.61988,-13.89565 -5.70984,-16.64346 1.91774,-1.07322 2.70879,-3.0288 1.98656,-4.91094 -1.26558,-3.29802 -7.09936,-4.39838 -7.09936,-1.33906 0,3.41581 -6.29233,8.05686 -9.3386,6.88789 -1.68499,-0.64659 -2.51074,-0.62277 -1.83501,0.053 1.85575,1.85575 -2.19852,12.00312 -5.26602,13.18023 -1.83174,0.70289 -3.31909,-1.24167 -4.66992,-6.10539 -2.56271,-9.22727 -2.51304,-12.59827 0.22608,-15.33737 1.58431,-1.58433 1.63774,-2.95018 0.18452,-4.71894 -1.12482,-1.36908 -2.34486,-4.64724 -2.71121,-7.28482 -0.39552,-2.84767 -2.14707,-5.07803 -4.3122,-5.49103 -2.86119,-0.54576 -3.42211,0.16102 -2.60562,3.28338 0.67619,2.58572 -0.57615,5.72326 -3.57674,8.96095 -5.30075,5.7196 -6.15035,8.44653 -1.41385,4.53792 2.94995,-2.43432 3.08526,-1.72913 1.71012,8.91312 -0.82131,6.35612 -1.71116,13.29007 -1.97746,15.40877 -0.26629,2.11871 0.18124,4.71894 0.99448,5.77829 0.81325,1.05935 1.87704,4.09295 2.36395,6.74133 0.73937,4.02152 0.92854,3.77138 1.14761,-1.51747 0.23639,-5.70704 0.78562,-6.27794 5.55906,-5.77829 3.5195,0.36839 5.12598,-0.28109 4.78775,-1.93567 -0.39562,-1.9353 0.38147,-2.01354 3.4877,-0.35112 4.88204,2.61278 3.99199,6.47355 -1.68499,7.30889 -2.30053,0.33852 -4.1828,1.4731 -4.1828,2.5213 0,1.04818 0.80686,1.40715 1.793,0.79768 0.98616,-0.6095 2.33743,-0.22726 3.00282,0.84937 0.66539,1.07663 3.81003,1.95751 6.98809,1.95751 3.42356,0 5.28528,-0.79772 4.56849,-1.95751 -0.66539,-1.07663 -1.89147,-1.53624 -2.72458,-1.02134 -0.83313,0.51489 -1.10082,-1.22929 -0.59488,-3.87596 0.70278,-3.67635 1.77587,-4.54046 4.5465,-3.6611 2.16776,0.68802 3.93584,0.12905 4.39537,-1.38939 3.18014,-10.50868 2.69484,-10.44655 11.79974,-1.51075 8.71738,8.55545 10.06472,12.05732 6.64397,17.26824 -1.5809,2.40822 -2.17905,2.45107 -3.59334,0.25746 -1.2858,-1.99436 -2.56856,-2.12516 -5.29676,-0.5401 -3.34887,1.94567 -3.36066,2.09567 -0.16892,2.15016 5.67077,0.0969 6.37832,5.91408 1.20325,9.89268 -2.5489,1.95961 -3.74842,3.58217 -2.66558,3.60573 1.08281,0.0235 5.21689,-2.63455 9.18684,-5.90691 z M 254.62308,333.9778 c -0.64005,-0.64003 -1.09526,0.49758 -1.01163,2.528 0.0925,2.2438 0.54882,2.70019 1.16367,1.16369 0.55639,-1.39041 0.48798,-3.05167 -0.15216,-3.69169 l 1.2e-4,0 z m 337.06678,0 c -0.64004,-0.64003 -1.09525,0.49758 -1.01162,2.528 0.0924,2.2438 0.54882,2.70019 1.16367,1.16369 0.55639,-1.39041 0.48798,-3.05167 -0.15197,-3.69169 l -8e-5,0 z M 281.38778,320.16644 c 1.05935,-0.0961 2.59015,-2.99589 3.40179,-6.44376 0.81162,-3.44784 2.39242,-7.87632 3.51285,-9.84104 1.44498,-2.53382 1.43595,-3.20065 -0.0312,-2.29396 -1.13755,0.70306 -2.06828,0.45312 -2.06828,-0.55541 0,-1.00854 1.19576,-2.29255 2.65726,-2.85339 1.99557,-0.76578 2.97698,1.80623 3.9412,10.32878 2.27137,20.07626 5.02355,15.06061 3.69053,-6.72573 -1.0284,-16.80785 -0.7729,-20.33037 1.47462,-20.33037 1.49519,0 3.86171,1.83054 5.25896,4.06788 l 2.54042,4.06785 5.2104,-4.99188 5.21041,-4.9919 0.41625,5.02954 c 0.22894,2.76624 -0.83126,9.23043 -2.35604,14.36486 -1.81363,6.10719 -2.09977,9.75098 -0.82745,10.53731 1.06966,0.66107 2.6959,3.06345 3.61386,5.33859 l 1.66904,4.13662 0.12211,-4.33371 c 0.0709,-2.51387 1.33533,-4.33372 3.01124,-4.33372 1.70367,0 2.9008,1.77821 2.91754,4.33372 0.0279,4.25607 0.074,4.24744 2.57617,-0.48153 1.40127,-2.64838 2.26039,-6.9821 1.90913,-9.63048 -0.35125,-2.64838 -1.20431,-9.58232 -1.8957,-15.40876 l -1.25707,-10.59353 4.49894,3.85219 4.49891,3.85219 -4.67092,-6.71402 c -2.56902,-3.69273 -4.41089,-8.24905 -4.09305,-10.12514 0.31783,-1.87612 -0.83598,-3.95366 -2.56401,-4.61678 -3.71153,-1.42425 -8.66447,2.60522 -5.75603,4.6828 2.31249,1.6519 3.63017,6.8749 1.38423,5.48682 -2.06406,-1.27566 -4.73066,0.71317 -7.38506,5.50803 -3.42947,6.19494 -7.41275,5.51725 -10.93055,-1.85966 -1.78553,-3.74427 -4.07225,-6.80777 -5.08162,-6.80777 -1.00937,0 -2.10682,-2.81691 -2.43878,-6.25981 -0.46036,-4.77456 -1.51756,-6.25981 -4.45576,-6.25981 -2.83631,0 -4.02284,1.49977 -4.49932,5.68703 -0.3559,3.12788 -1.73976,6.59485 -3.07522,7.70438 -1.33546,1.10955 -4.34466,5.48433 -6.68712,9.72174 -2.34244,4.23741 -2.80303,5.75421 -1.02355,3.37067 1.7795,-2.38355 4.42985,-4.33372 5.88966,-4.33372 4.33601,0 2.98728,25.34215 -2.10141,39.48497 -0.80303,2.2318 -0.70197,2.91682 0.24022,1.62849 0.89444,-1.22303 2.49301,-2.30239 3.55236,-2.39858 l 4e-5,0 z m 10.07535,2.32447 c -1.87404,-0.48835 -4.47427,-0.45624 -5.77829,0.0715 -1.30403,0.52759 0.22926,0.92716 3.40732,0.88791 3.17806,-0.0393 4.245,-0.47093 2.37097,-0.9593 l 0,-7e-5 z m 18.3121,-0.0275 c -2.39589,-0.4607 -5.86286,-0.44321 -7.70438,0.0389 -1.84152,0.48208 0.11884,0.85902 4.35617,0.83766 4.23742,-0.0214 5.7441,-0.41582 3.34821,-0.87653 l 0,-4e-5 z m 27.9142,0.0275 c -1.87403,-0.48835 -4.47426,-0.45624 -5.77829,0.0715 -1.30402,0.52759 0.22926,0.92716 3.40732,0.88791 3.17806,-0.0393 4.245,-0.47093 2.37097,-0.9593 l 0,-7e-5 z m 18.21418,0.0193 c -1.39041,-0.55639 -3.05166,-0.48798 -3.69169,0.15197 -0.64002,0.64002 0.49759,1.09525 2.528,1.01162 2.24381,-0.0925 2.7002,-0.54882 1.16369,-1.16369 l 0,1e-4 z m 26.08603,-0.0193 c -1.87404,-0.48835 -4.47427,-0.45624 -5.77829,0.0715 -1.30403,0.52759 0.22926,0.92716 3.40732,0.88791 3.17806,-0.0393 4.245,-0.47093 2.37097,-0.9593 l 0,-7e-5 z m 32.78028,0.008 c -1.85387,-0.48447 -4.88747,-0.48447 -6.74134,0 -1.85386,0.48447 -0.33706,0.88084 3.37067,0.88084 3.70774,0 5.22454,-0.39637 3.37067,-0.88084 z m 21.18706,0 c -1.85387,-0.48447 -4.88747,-0.48447 -6.74134,0 -1.85387,0.48447 -0.33707,0.88084 3.37067,0.88084 3.70773,0 5.22453,-0.39637 3.37067,-0.88084 z m 29.83202,-0.0345 c -2.39589,-0.4607 -5.86286,-0.44321 -7.70438,0.0389 -1.84152,0.48208 0.11884,0.85902 4.35617,0.83766 4.23742,-0.0214 5.7441,-0.41582 3.34821,-0.87653 l 0,-4e-5 z m 28.89144,0 c -2.39589,-0.4607 -5.86286,-0.44321 -7.70438,0.0389 -1.84152,0.48208 0.11884,0.85902 4.35617,0.83766 4.23741,-0.0214 5.7441,-0.41582 3.34821,-0.87653 l 0,-4e-5 z m 33.69249,0.0275 c -1.87404,-0.48834 -4.47427,-0.45624 -5.77829,0.0715 -1.30403,0.52759 0.22926,0.92716 3.40732,0.88791 3.17806,-0.0393 4.245,-0.47093 2.37097,-0.9593 l 0,-7e-5 z m 22.06637,0.0193 c -1.39041,-0.55639 -3.05167,-0.48796 -3.69169,0.15216 -0.64002,0.64002 0.49759,1.09526 2.528,1.01162 2.24381,-0.0924 2.7002,-0.54882 1.16369,-1.16369 l 0,-9e-5 z m -293.12772,-3.63362 c 0,-0.35627 -1.01504,-2.87551 -2.25561,-5.59829 l -2.25562,-4.95053 -5.57271,5.33898 -5.57272,5.339 4.45766,1.09628 c 4.14612,1.01966 11.199,0.24791 11.199,-1.22544 z m 109.68203,-8.53341 c 0.94078,0 2.14769,1.08342 2.68201,2.40762 0.53432,1.32419 1.03992,-2.53309 1.12355,-8.57173 0.11518,-8.31561 0.96983,-11.45565 3.52274,-12.94257 3.21016,-1.86976 3.21016,-1.96603 0,-2.02181 -2.03232,-0.0352 -3.37067,-1.54297 -3.37067,-3.79708 0,-4.3306 -3.44024,-7.09017 -5.81537,-4.6648 -0.89513,0.91409 -1.90306,4.2622 -2.2398,7.44026 -0.33674,3.17806 -1.47901,6.41508 -2.53836,7.19337 -1.16157,0.85338 -0.88136,1.42678 0.70591,1.44458 2.0742,0.0233 2.39509,2.78482 1.51413,13.03063 -0.88475,10.2898 -0.71923,11.69568 0.79372,6.74134 1.0514,-3.4429 2.68136,-6.25981 3.62214,-6.25981 z m 26.1613,-2.31552 c 0.83257,-6.05356 2.20516,-9.24106 3.97937,-9.24106 1.48962,0 2.7084,0.9179 2.7084,2.03977 0,1.12188 -0.95323,1.45064 -2.11827,0.73061 -1.54028,-0.95195 -1.54028,-0.2292 0,2.64885 1.16504,2.17691 2.13154,5.96515 2.14776,8.41834 0.0154,2.4532 0.94656,5.76046 2.06743,7.34949 1.45514,2.06296 1.68023,-3.10697 0.78712,-18.07932 -1.2266,-20.56246 -1.1734,-20.94822 2.7478,-19.92281 4.66824,1.22076 4.6856,1.16916 1.76336,-5.24441 -2.04717,-4.49304 -3.97554,-5.74994 -7.87673,-5.13395 -0.79451,0.12539 -1.44457,-1.12318 -1.44457,-2.77473 0,-1.65156 0.86674,-2.46714 1.9261,-1.81242 1.05935,0.65472 1.92609,-0.50152 1.92609,-2.5694 0,-4.86333 -5.67587,-7.02593 -9.19741,-3.50437 -2.22948,2.22947 -2.29608,3.57807 -0.3602,7.29364 1.30628,2.50712 1.71029,3.93885 0.89783,3.1816 -0.81245,-0.75724 -2.98846,-0.568 -4.83554,0.42055 -4.1825,2.23839 -6.41933,9.6237 -2.91478,9.6237 3.41211,0 4.39192,8.65533 2.75828,24.36605 -2.06296,19.83943 2.3472,21.77394 5.03796,2.20987 z m 56.41577,2.67637 c 5.68104,0.66227 5.75125,0.21297 3.47918,-22.26819 l -0.94875,-9.38772 5.44008,5.21194 c 3.4392,3.29495 5.91383,4.44541 6.72809,3.1279 0.7084,-1.14622 -0.004,-2.08403 -1.58366,-2.08403 -3.63531,0 -10.23924,-9.14921 -11.12611,-15.41432 -0.37617,-2.65722 -2.1684,-5.05492 -4.04596,-5.41277 -2.61835,-0.49903 -3.37067,0.67878 -3.37067,5.2771 0,3.25572 -0.76706,5.91951 -1.70457,5.91951 -0.93751,0 -3.23856,2.38354 -5.1134,5.29676 l -3.40883,5.29677 4.43707,-3.8522 4.43709,-3.85219 -1.43615,10.59353 c -2.5421,18.7512 -2.6371,21.1775 -0.87187,22.26848 0.95402,0.58962 1.87329,3.40441 2.04282,6.25511 0.26083,4.38576 0.42913,4.20155 1.09408,-1.19739 0.69376,-5.63285 1.39112,-6.30993 5.95156,-5.77829 z m 57.22389,-2.67637 c 0.83257,-6.05356 2.20516,-9.24106 3.97937,-9.24106 1.48962,0 2.7084,0.9179 2.7084,2.03977 0,1.12188 -0.87331,1.50003 -1.94072,0.84034 -1.27771,-0.78966 -1.33829,0.32301 -0.17739,3.25699 0.96985,2.45103 2.68257,7.49003 3.80604,11.19776 1.6043,5.29463 1.80926,2.29786 0.95504,-13.96419 -1.05156,-20.01975 -0.95521,-20.70553 2.90867,-20.70553 3.56366,0 3.75876,-0.52124 1.80229,-4.81524 -2.00994,-4.4113 -3.94598,-5.65747 -7.83546,-5.04333 -0.79451,0.12539 -1.44457,-0.63866 -1.44457,-1.69801 0,-1.05935 0.86674,-1.92609 1.9261,-1.92609 3.24073,0 2.13779,-7.21102 -1.30501,-8.53215 -3.78823,-1.45366 -10.34656,4.06401 -7.36242,6.19417 2.34188,1.67174 3.45845,6.28006 1.44457,5.96208 -3.88948,-0.61414 -5.82552,0.63203 -7.83546,5.04333 -1.7556,3.85313 -1.66983,4.81524 0.42925,4.81524 3.91512,0 4.88551,6.39219 3.76766,24.81838 -1.08289,17.84969 1.79379,19.06107 4.17364,1.75754 z m 92.12717,5.88394 -5.33261,-5.56604 -2.42627,4.36947 c -1.33445,2.40323 -2.457,4.95598 -2.49452,5.67283 -0.0961,1.83538 5.84711,2.84662 11.12954,1.8937 l 4.45647,-0.80391 -5.33261,-5.56605 z m -309.62894,0.80541 c -0.64004,-0.64002 -1.09525,0.49759 -1.01162,2.528 0.0924,2.24381 0.54882,2.7002 1.16367,1.16369 0.55639,-1.39041 0.48797,-3.05167 -0.15216,-3.69169 l 1.1e-4,0 z m 23.87556,3.46813 c 0,-0.9837 -1.38766,-3.17617 -3.08366,-4.87217 -2.95051,-2.95051 -2.87951,-5.84195 0.41577,-16.93399 0.76479,-2.57428 -0.12905,-3.37067 -3.78314,-3.37067 -2.63149,0 -5.22171,-1.08343 -5.75603,-2.40762 -1.43207,-3.54906 -1.46601,10.11139 -0.0508,20.43671 1.13295,8.26576 1.63877,8.93626 6.74134,8.93626 3.03408,0 5.51649,-0.80484 5.51649,-1.78852 l 8e-5,0 z m 8.98,-4.4713 c -0.53432,-1.32419 -0.97149,-0.24076 -0.97149,2.40762 0,2.64839 0.43717,3.73181 0.97149,2.40762 0.53432,-1.32419 0.53432,-3.49105 0,-4.81524 z m 15.30227,3.21314 c -0.64302,-1.67567 -1.16912,-3.94865 -1.16912,-5.05107 0,-1.21366 -1.1398,-1.05847 -2.88914,0.39336 -4.18543,3.47358 -3.5434,7.70439 1.16912,7.70439 2.90927,0 3.72726,-0.86259 2.88914,-3.04668 z m 8.60258,-2.73161 c 0.98169,0 1.83981,1.5168 1.90697,3.37067 0.0957,2.64094 0.49037,2.45631 1.82324,-0.85282 1.00552,-2.4964 0.9556,-6.82318 -0.12211,-10.58082 -2.84704,-9.92708 -2.49672,-12.22626 1.37533,-9.0262 2.91771,2.41132 2.96842,2.27385 0.57754,-1.56569 -1.44157,-2.31501 -3.31431,-3.78065 -4.16162,-3.25699 -0.84733,0.52367 -1.54059,0.10652 -1.54059,-0.92712 0,-1.0336 1.08343,-2.27651 2.40762,-2.76206 1.8203,-0.66743 1.86697,-1.45869 0.19126,-3.24353 -1.7251,-1.83755 -2.5009,-1.46403 -3.50046,1.68533 -1.30998,4.1274 -4.54725,5.19305 -7.90297,2.6015 -1.0288,-0.79451 -0.27834,0.0406 1.66771,1.85601 3.55498,3.31622 4.98557,12.61294 2.54782,16.55728 -0.71895,1.1633 -0.67038,4.5385 0.10806,7.50043 1.01185,3.85061 1.6178,4.42476 2.12625,2.01468 0.3911,-1.85387 1.51428,-3.37067 2.49595,-3.37067 z m 11.44165,1.44457 c 0.0135,-2.38354 0.50036,-6.09815 1.07977,-8.25469 0.80035,-2.97896 0.13675,-3.92099 -2.76233,-3.92099 -3.13692,0 -3.47121,0.64384 -1.87902,3.61886 1.0652,1.99037 1.41315,5.70498 0.77323,8.25469 -0.65896,2.62546 -0.31234,4.63585 0.79927,4.63585 1.07954,0 1.97463,-1.95018 1.98908,-4.33372 z m 25.72505,0 c 0.63877,-2.38354 1.17322,-8.86553 1.18769,-14.40442 0.0262,-10.04608 0.0135,-10.06536 -4.78893,-7.87675 -4.15411,1.89273 -4.81524,3.45218 -4.81524,11.35776 0,5.04007 0.52609,10.53478 1.16912,12.21045 1.7119,4.46114 5.90655,3.71623 7.24736,-1.28704 z m 31.49708,-7.19208 c 0.37819,-10.16389 -0.16545,-12.11208 -4.62321,-16.56992 l -5.05178,-5.05178 1.25254,9.13819 c 0.68889,5.02601 1.25252,12.4842 1.25252,16.57375 0,5.79887 0.74193,7.43471 3.37067,7.43172 2.78612,-0.004 3.44499,-2.00137 3.79926,-11.52196 z m 8.38006,5.74751 c 0.98169,0 1.79814,1.08343 1.81436,2.40762 0.0214,1.74955 0.48752,1.68456 1.70519,-0.23776 0.96561,-1.52439 0.87979,-5.52795 -0.20252,-9.44775 -1.27075,-4.60227 -1.21266,-8.26311 0.1797,-11.3188 1.28804,-2.82712 1.35276,-4.51646 0.17296,-4.51646 -1.03664,0 -1.8848,-1.73349 -1.8848,-3.8522 0,-2.1187 -0.86674,-3.85219 -1.92609,-3.85219 -1.05936,0 -1.9261,1.73349 -1.9261,3.85219 0,4.38931 -3.05979,4.96733 -7.64712,1.44458 -1.72436,-1.32419 -1.03553,-0.40697 1.53077,2.03829 3.97879,3.79117 4.52145,5.728 3.68469,13.15153 -1.0242,9.08671 0.63119,20.35156 2.01347,13.70162 0.38535,-1.85387 1.50384,-3.37067 2.48551,-3.37067 l -2e-5,0 z m 15.26755,3.12497 c 0,-1.4593 -1.09355,-3.56085 -2.4301,-4.67009 -1.80034,-1.49415 -3.00123,-0.80657 -4.63402,2.6533 -2.01011,4.25938 -1.79637,4.67011 2.4301,4.67011 2.65199,0 4.63402,-1.13486 4.63402,-2.65332 z m 28.89143,-1.19888 c 0,-2.1187 -0.97751,-3.85219 -2.17227,-3.85219 -2.10167,0 -1.28389,-11.10641 1.31684,-17.8838 0.82154,-2.14089 -0.0967,-2.58707 -3.84803,-1.86995 -5.58953,1.06852 -5.59381,1.08237 -3.06458,9.90129 1.42063,4.95349 1.1922,7.45081 -0.96304,10.52785 -4.06484,5.80336 -3.54995,7.029 2.9528,7.029 4.49421,0 5.77828,-0.85604 5.77828,-3.8522 z m 17.54146,-6.81522 c 1.30863,-2.65637 1.27652,-5.65573 -0.0992,-9.27434 -1.11847,-2.94155 -2.0335,-8.86495 -2.0335,-13.1631 0,-7.12069 0.29271,-7.58003 3.29542,-5.17137 2.27189,1.82241 1.97278,0.75644 -0.96305,-3.43217 -2.34215,-3.34158 -4.25846,-7.89198 -4.25846,-10.112 0,-2.34059 -1.2392,-4.03639 -2.94959,-4.03639 -4.1839,0 -5.66484,5.23665 -2.56267,9.06169 1.56097,1.92469 1.69471,2.67739 0.33031,1.85885 -1.28762,-0.77246 -4.02304,0.48172 -6.23948,2.86078 -4.22581,4.53589 -3.88187,7.46231 0.45412,3.86376 2.1653,-1.79704 2.36966,-0.40511 1.20287,8.19292 -0.77306,5.69678 -1.96117,12.10833 -2.64026,14.24789 -0.67906,2.13957 -0.33267,4.44759 0.76977,5.12895 1.10246,0.68135 2.05938,3.13784 2.12654,5.45886 l 0.12212,4.22004 1.74194,-4.33372 c 2.48886,-6.19195 7.59232,-5.56726 7.86779,0.96305 0.16237,3.84782 0.45292,4.243 1.06234,1.44457 0.4614,-2.1187 1.70926,-5.61892 2.77302,-7.77827 l -4e-5,0 z m 12.17782,6.3337 c 2.00965,-9.6638 2.97871,-31.25988 1.21881,-27.16244 -2.49895,5.81822 -5.5486,7.21047 -9.23299,4.21511 -2.75705,-2.24146 -2.99409,-2.1169 -1.83755,0.96561 2.82377,7.5261 3.75629,18.61105 1.56568,18.61105 -1.19475,0 -2.17227,1.73349 -2.17227,3.85219 0,5.77201 9.24638,5.34631 10.45832,-0.48152 z m 32.67277,1.28704 c 1.91232,-4.98345 1.32689,-21.99257 -0.75698,-21.99257 -1.05935,0 -3.79652,-1.87043 -6.08261,-4.15652 l -4.15653,-4.15653 1.25063,10.41635 c 0.68787,5.72897 1.25819,13.23324 1.26739,16.67613 0.0135,4.85194 0.8368,6.25982 3.66286,6.25982 2.00537,0 4.17223,-1.371 4.81524,-3.04668 z m 22.29493,0.63906 c -0.0337,-1.3242 -1.45041,-4.14111 -3.14828,-6.25982 -2.71287,-3.38532 -2.93888,-3.42458 -1.86483,-0.32398 0.67219,1.9405 1.22216,4.75741 1.22216,6.25981 0,1.50237 0.86675,2.73161 1.9261,2.73161 1.05935,0 1.89853,-1.08343 1.86485,-2.40762 z m -14.62524,-9.53851 c -0.5223,-0.8451 -0.0953,-1.53655 0.94891,-1.53655 1.0442,0 2.29493,1.5168 2.77938,3.37067 0.48447,1.85387 0.9814,-1.00638 1.10429,-6.35611 0.12288,-5.34974 1.26352,-10.76688 2.53474,-12.0381 1.63969,-1.63969 1.67861,-2.31132 0.13406,-2.31132 -1.19755,0 -2.45433,-1.95017 -2.79284,-4.33372 -0.33861,-2.38354 -1.9157,-4.33371 -3.50473,-4.33371 -1.58902,0 -3.16611,1.95017 -3.50462,4.33371 -0.35494,2.49911 -1.98569,4.35851 -3.8522,4.39229 -2.9481,0.0534 -2.93616,0.23362 0.13387,2.02181 2.57991,1.50264 3.37758,4.53902 3.40015,12.94257 0.02,7.42682 0.60206,10.07427 1.79902,8.18217 0.97323,-1.53845 1.34218,-3.48862 0.81988,-4.33371 l 9e-5,0 z M 338.20761,302.1398 c 0,-4.08818 -1.28014,-7.0775 -3.67002,-8.56999 -3.46894,-2.1664 -3.56319,-1.90156 -1.71995,4.83344 3.28636,12.00792 5.38997,13.46622 5.38997,3.73655 z m 96.88418,-0.90477 c 0.59232,-2.93527 1.74062,-7.07033 2.55177,-9.18904 1.0796,-2.81984 0.0647,-2.33727 -3.7867,1.80071 -2.89387,3.10911 -4.79694,6.86366 -4.22909,8.34344 0.56783,1.4798 1.03244,3.53755 1.03244,4.57277 0,3.85044 3.39322,-0.38222 4.43158,-5.52788 z m 115.00507,-3.49365 c 0.95748,-4.24538 0.90396,-6.42543 -0.13232,-5.38916 -2.07783,2.07784 -4.91732,15.67638 -2.88377,13.81056 0.77448,-0.71058 2.13173,-4.50021 3.01609,-8.4214 z m -271.65948,-1.36167 c -0.0557,-7.43625 -0.30844,-7.85965 -2.76036,-4.62323 -2.07629,2.74061 -2.21305,4.62949 -0.59262,8.18591 2.9153,6.3984 3.42348,5.85843 3.35298,-3.56268 z m 217.71009,-12.21349 c 0,-0.36671 -1.30011,-0.16796 -2.88914,0.4419 -1.58903,0.60979 -2.88914,1.98881 -2.88914,3.06454 0,1.12736 1.22386,0.94016 2.88914,-0.44191 1.58903,-1.31877 2.88914,-2.69782 2.88914,-3.06453 z"
       id="path2916"
       sodipodi:nodetypes="cccsssssssssssssssssssssssssssssssscccssscccsssssssssscccssssscccccccccccccccccccsssssssssssssssssssssccssssssssssssssssssssssssssssssssssssssssssccsscccsscccsssssssscccccsscccsssscccccsssssssssssssssscccsscccsscccsscccsscccsscccssccssccsscccsscccsscccssccccccccccsssssssssssccssssssssssssssssssscccccsssssscccccsssccsssssssssssssssssccccsccccsscccsssssscccssccsssccsssssssssssssssccsssssccsssscccccssccsssssssssssscccsssccssssssccssssssssssssscccsscccsssssccscccssccssssccsssssssssssscccssccssssccssccssccsssc"
       inkscape:export-filename="/home/vencax/projects/vzp/src/files/images/vzp-logo.png"
       inkscape:export-xdpi="90"
       inkscape:export-ydpi="90" />
    <g
       id="g2843"
       transform="matrix(0.51807662,0,0,0.51807662,210,255.49151)"
       inkscape:export-filename="/home/vencax/projects/vzp/src/files/images/bien-logo.png"
       inkscape:export-xdpi="90"
       inkscape:export-ydpi="90">
      <path
         sodipodi:nodetypes="csssssssssscccsssssscccsssssssssssssssscccsscccssssssscccsssssssssssssssscccsssssssscccssccscccsccsssccsssccssccsssccsssccc"
         style="fill:#e6be17"
         d="m 168.88019,1021.3243 c -28.83175,-5.0801 -54.57573,-17.7591 -75.48165,-37.17503 -7.69242,-7.14417 -8.76881,-7.81981 -11.68571,-7.3351 -13.54343,2.25057 -44.80318,8.03338 -51.90719,9.60242 -4.7819,1.05617 -9.3944,1.65167 -10.25,1.32335 -2.10807,-0.80894 -1.96992,-4.0909 0.22157,-5.26375 2.63408,-1.40971 22.10359,-5.36239 54.56574,-11.07788 29.11245,-5.12571 37.45744,-7.43669 54.15705,-14.99767 8.21931,-3.72141 11.42771,-6.68584 19.79449,-18.28929 3.96303,-5.49612 7.83092,-10.85136 8.59532,-11.90053 0.76439,-1.04917 1.19504,-2.10234 0.957,-2.34038 -0.23804,-0.23804 -4.77803,-0.52336 -10.08887,-0.63405 l -9.65607,-0.20124 -5.65961,4.36635 c -3.11278,2.4015 -7.97321,7.25117 -10.80093,10.77705 -9.39992,11.72068 -10.23507,12.54829 -11.98509,11.87674 -2.87538,-1.10339 -1.819,-4.73415 3.44237,-11.83135 7.16355,-9.66309 14.8755,-16.26747 28.45337,-24.36698 24.73987,-14.75789 35.70163,-30.67339 22.79401,-33.09487 -6.103,-1.14493 -21.13697,4.63248 -29.57142,11.36401 -2.04899,1.6353 -7.89899,5.05108 -13,7.59064 l -9.27457,4.61737 -8,-1.98077 c -15.1045,-3.73982 -26.54518,-2.23498 -36.61001,4.81546 -11.05472,7.74385 -25.87763,16.33728 -27.61056,16.00694 -0.97869,-0.18657 -1.92228,-1.33986 -2.09687,-2.56288 -0.2478,-1.73584 0.70833,-2.8305 4.35829,-4.98978 2.57166,-1.52137 9.6895,-6.09394 15.81744,-10.16127 6.12794,-4.06734 13.27465,-8.22627 15.88158,-9.24208 7.73666,-3.01464 16.85382,-3.34637 28.09249,-1.02214 5.40781,1.11836 10.47031,1.78859 11.25,1.48939 1.15939,-0.4449 1.41764,-4.25897 1.41764,-20.93701 0,-11.21615 -0.26468,-20.39301 -0.58819,-20.39301 -0.3235,0 -3.47626,2.60659 -7.00613,5.79243 -8.49879,7.67047 -14.7422,11.33478 -29.5666,17.35288 C 60.22552,885.65266 53.75972,889.33968 43,898.36872 33.37774,906.44325 21.46529,913.38946 9.54615,917.87581 2.41815,920.55878 0,920.30967 0,916.8924 c 0,-1.90084 1.43749,-2.83509 9.25,-6.01175 12.08871,-4.91542 20.58825,-9.95469 29.5,-17.4902 l 7.25,-6.13039 0,-6.34559 c 0,-72.45908 49.08642,-133.64988 119.31159,-148.73304 14.53676,-3.12224 39.84006,-3.12224 54.37682,0 25.88343,5.55932 47.80385,16.61679 69.77864,35.19893 l 9.7912,8.27956 10.12088,-1.73772 c 5.56648,-0.95574 19.26256,-3.53585 30.43574,-5.73357 11.17319,-2.19772 20.96069,-3.74804 21.75,-3.44515 2.24305,0.86074 1.70934,4.53934 -0.81487,5.61651 -1.2375,0.52809 -11.925,2.7897 -23.75,5.02581 -65.92419,12.46628 -70.93223,13.70103 -81.72797,20.15037 -3.05731,1.82644 -8.31075,6.02079 -11.6743,9.32079 C 237.67266,810.67008 225,826.78609 225,828.50797 c 0,0.46694 4.48471,0.84899 9.96602,0.84899 l 9.96602,0 8.99869,-7.55006 c 4.94928,-4.15253 11.4013,-10.24728 14.33782,-13.54388 5.75151,-6.45677 8.72979,-7.15556 8.73323,-2.04907 10e-4,2.02701 -2.28892,4.88388 -9.82672,12.25771 -9.90461,9.68916 -17.97372,16.09581 -32.67506,25.94305 -11.00209,7.36941 -17.26097,13.41239 -18.63234,17.98961 -2.36012,7.87738 1.32599,11.69053 10.13234,10.48152 6.90835,-0.94843 9.70506,-2.35921 20.37074,-10.27582 11.03665,-8.19197 13.56787,-9.65156 21.42678,-12.35542 5.19194,-1.78629 5.78468,-1.79852 11.58717,-0.2391 3.36342,0.90392 9.94031,1.68021 14.61531,1.72507 7.15745,0.0687 9.36871,-0.32614 14,-2.49978 7.50964,-3.52455 23.44229,-13.28929 29.38063,-18.00668 2.68434,-2.13243 5.44174,-3.87715 6.12755,-3.87715 2.06516,0 3.74763,2.72047 2.7666,4.47347 -2.31053,4.1287 -29.55512,21.49414 -38.77478,24.71468 -6.31843,2.2071 -18.34414,2.32611 -27.37995,0.27096 -4.9394,-1.12344 -7.49882,-1.2656 -9.44741,-0.52475 L 268,857.30746 l 0,20.02475 c 0,17.13311 0.2166,20.02475 1.5,20.02475 0.825,0 1.5,-0.4282 1.5,-0.95155 0,-1.77121 14.16265,-12.88641 20.8522,-16.36534 3.65629,-1.90146 9.3478,-4.22657 12.6478,-5.1669 14.7676,-4.20801 25.76677,-10.55234 38.98434,-22.4862 9.18194,-8.29018 15.98601,-12.5141 29.36812,-18.23157 9.82893,-4.19938 12.64754,-4.26589 12.64754,-0.29844 0,2.08831 -0.13682,2.17018 -12.5,7.47994 -10.98506,4.71788 -19.45463,10.24185 -27.62848,18.01966 l -5.77963,5.4996 -0.16963,16.5004 c -0.19429,18.89985 -1.82788,29.45783 -6.9101,44.66053 -16.46877,49.26385 -62.32073,87.16361 -115.98234,95.86721 -12.51498,2.0299 -34.41126,1.7725 -47.64963,-0.56 z m 52.91069,-86.53342 C 223.71512,933.44309 228,926.58501 228,924.85299 c 0,-0.32101 -3.24966,-0.45143 -7.22148,-0.28984 l -7.22147,0.29381 -0.84961,4.31188 c -0.59081,2.9984 -0.48604,4.74996 0.34392,5.75 1.57276,1.89507 5.94259,1.83109 8.73952,-0.12796 z M 246.75,929.80696 c 4.39993,-4.39993 3.46491,-5.67433 -3.85721,-5.25721 -5.09306,0.29014 -5.41083,0.46475 -5.71736,3.14168 -0.47514,4.14936 0.43292,5.66553 3.39319,5.66553 1.68102,0 3.91351,-1.28213 6.18138,-3.55 z m -40.75,-2.45 c 0,-0.55 0.1125,-1.32987 0.25,-1.73304 0.36052,-1.05709 -6.93224,-2.08138 -8.3927,-1.17877 -0.96311,0.59524 -0.94594,1.10008 0.0794,2.33559 1.42752,1.72001 8.0633,2.19422 8.0633,0.57622 z m -20,-100.8 c 0,-4.14576 -4.50071,-5.51418 -7.44297,-2.26301 -2.40167,2.65381 -1.18706,4.06301 3.50199,4.06301 3.12835,0 3.94098,-0.37116 3.94098,-1.8 z m -38.23948,-2.7 c 0.34455,-3.96771 -0.95107,-5.75 -4.17993,-5.75 -3.95906,0 -9.58288,5.81924 -8.0386,8.31794 0.35076,0.56755 3.16616,0.89368 6.29624,0.72933 5.49085,-0.2883 5.66963,-0.38783 5.92229,-3.29727 z m 23.12952,-0.28447 c 2.46162,-4.82516 1.36677,-7.21553 -3.30487,-7.21553 -3.81539,0 -7.95718,2.88492 -10.10515,7.03864 -0.81401,1.57412 -1.48002,3.10939 -1.48002,3.4117 0,0.30231 2.91585,0.54966 6.47968,0.54966 l 6.47967,0 1.93069,-3.78447 z"
         id="path2835" />
      <path
         sodipodi:nodetypes="csssssssssssssssssssssssssssssssssssssssscccsssssssssssssssssssssscccssssssscccssccccsssssssssssssccsssssssssssssssscccssssscccsssscccsccssssscccscccscccssccccssssscccscccsssscccssscccssssccssccsscccscccsssssscccssssccccccsssssssccccccccsssccssssscccccsssssssccssssssssssssssssccsssssccsscccssscccccsssssssssssssscccsccccssscccscccsssccssssssssssscccscccccccsscccsssssssc"
         style="fill:#063495"
         d="m 168.88019,1021.3243 c -28.80933,-5.0761 -54.57789,-17.7611 -75.44037,-37.13669 -4.63737,-4.30686 -9.22094,-7.8285 -10.1857,-7.82586 -2.34026,0.006 -42.63095,7.40556 -53.43814,9.81364 C 21.07156,988.12383 18,987.76262 18,984.78583 c 0,-0.80946 1.0125,-1.89795 2.25,-2.41886 2.98465,-1.25636 21.08576,-4.83301 55.34281,-10.93533 27.76688,-4.94621 34.28034,-6.70147 49.90719,-13.44906 10.05278,-4.34074 14.89791,-8.5009 22.64866,-19.44677 3.38001,-4.77337 7.23276,-9.9847 8.56166,-11.58074 1.59028,-1.90997 2.04006,-3.13435 1.31583,-3.58195 -2.30522,-1.42471 -17.93978,-1.11218 -20.89833,0.41774 -4.62286,2.39058 -13.7484,11.23809 -19.32166,18.73298 -3.86771,5.20129 -5.66604,6.85305 -7.21836,6.63008 -3.66079,-0.52584 -2.81896,-3.3671 3.47081,-11.71425 6.77741,-8.99431 15.47234,-16.42781 26.94139,-23.03286 10.82873,-6.23628 21.59602,-14.5095 25.00094,-19.20984 6.72135,-9.27857 4.37872,-15.50041 -5.49015,-14.58136 -7.59993,0.70775 -15.13055,4.04514 -27.28585,12.09243 -14.82186,9.81266 -18.9427,11.348 -26.18406,9.75561 -11.05598,-2.43122 -17.71951,-3.05415 -23.132,-2.16245 -7.58063,1.2489 -9.13145,1.97291 -20.40888,9.52808 -19.26836,12.90858 -25.5,15.47889 -25.5,10.51776 0,-1.2046 3.37493,-3.85382 10.25,-8.04593 5.6375,-3.4375 12.42385,-7.82119 15.08078,-9.74154 8.45858,-6.11361 14.87466,-8.15403 25.66922,-8.16325 5.225,-0.004 12.2,0.64382 15.5,1.44064 7.62864,1.84201 8.03725,1.83989 9.92857,-0.0514 C 115.7461,894.468 116,891.16536 116,875.34455 c 0,-11.39634 -0.39278,-19.11231 -0.99175,-19.48249 -0.54546,-0.33711 -4.1642,2.11752 -8.04165,5.45473 -9.84483,8.47319 -13.37329,10.50804 -29.92351,17.25677 -17.99356,7.3373 -22.32364,9.79778 -33.04309,18.77607 -10.41342,8.72197 -18.93549,13.92834 -30.29896,18.51046 -9.5817,3.86365 -12.46426,4.27748 -13.36917,1.91933 -0.81186,-2.11567 1.16774,-3.74364 7.16813,-5.8949 10.06352,-3.60798 22.63481,-10.84898 30.24635,-17.42176 7.58553,-6.55032 7.75866,-6.80293 7.98485,-11.65065 0.67307,-14.42537 2.62198,-30.39173 4.81548,-39.45062 13.55135,-55.96552 57.94984,-98.97716 114.76491,-111.18006 14.53676,-3.12224 39.84006,-3.12224 54.37682,0 25.87042,5.55652 47.80543,16.61813 69.74856,35.1735 l 9.76111,8.25411 5.15096,-0.60762 c 2.83303,-0.33418 16.80429,-2.89007 31.04726,-5.67974 16.30731,-3.194 26.24713,-4.72129 26.84378,-4.12464 0.52111,0.52111 0.78831,1.77399 0.59377,2.78417 -0.43567,2.26224 -5.14638,3.40283 -42.83385,10.37126 -34.16279,6.31671 -48.43653,9.47961 -55.22258,12.23667 -7.2252,2.93548 -14.99304,7.95398 -20.98096,13.55498 C 238.6703,808.93904 225,826.38975 225,828.13859 c 0,1.3267 5.02038,2.21837 12.49014,2.21837 4.89166,0 6.86355,-0.47598 9.125,-2.20262 6.3779,-4.8696 18.99616,-16.33983 22.21956,-20.19799 3.81359,-4.56457 7.46882,-5.47595 7.96689,-1.98643 0.64201,4.49793 -18.95505,22.42776 -40.09603,36.68484 C 219.14827,854.49506 215,859.12208 215,866.86536 c 0,4.25259 2.92749,6.4937 8.47251,6.48602 6.9733,-0.01 11.02799,-1.81432 21.67592,-9.64753 10.88619,-8.00848 20.30843,-13.05994 26.11883,-14.00283 1.90994,-0.30994 6.65747,0.16085 10.55008,1.0462 8.65156,1.96776 16.38924,2.05382 22.38626,0.24898 5.4079,-1.62754 20.26887,-10.24596 31.18315,-18.08425 C 343.1969,827.30294 346,826.57043 346,830.13848 c 0,2.56314 -3.93232,6.01657 -15,13.17328 -22.56063,14.58841 -31.21712,16.9608 -49.39929,13.53833 -8.99693,-1.69352 -9.64042,-1.69713 -12.12658,-0.0681 l -2.62547,1.72028 0.70397,19.67736 c 0.38718,10.82256 0.86936,19.863 1.0715,20.08987 0.20215,0.22688 3.20654,-2.31363 6.67642,-5.64558 9.24963,-8.88195 17.33133,-13.68635 29.78428,-17.70612 17.44192,-5.63018 24.87251,-9.93271 37.96197,-21.98107 8.50561,-7.82909 18.27122,-13.82975 30.95925,-19.02348 6.23735,-2.55321 8.83078,-3.17876 10.18154,-2.45586 3.8714,2.07191 2.01236,3.87536 -8.68759,8.42783 -12.33008,5.24603 -20.91654,10.53908 -29.03777,17.9001 l -6.86689,6.2241 -0.17135,16.92379 c -0.19595,19.35252 -1.79358,29.77346 -6.91183,45.08392 -16.46877,49.26385 -62.32073,87.16357 -115.98234,95.86727 -12.51498,2.0298 -34.41126,1.7725 -47.64963,-0.5601 z m 10.34467,-7.8826 2.55231,-5.9153 6.11142,0.5542 c 3.52348,0.3195 6.11141,0.1578 6.11141,-0.3818 0,-0.5148 -1.8,-2.6936 -4,-4.8418 -4.57252,-4.46499 -4.75656,-5.56924 -2,-12.00004 3.18309,-7.42585 2.42905,-8.22269 -3.78519,-4 -2.02349,1.375 -4.48467,2.5 -5.46929,2.5 -0.98461,0 -3.81436,-1.8658 -6.28832,-4.14621 -2.47396,-2.28042 -4.75785,-3.88647 -5.07532,-3.56901 -0.31746,0.31747 -0.0833,2.88041 0.52046,5.69544 1.72364,8.03706 1.54699,8.57176 -3.94924,11.95362 -2.77579,1.708 -4.79843,3.5074 -4.49476,3.9988 0.30368,0.4913 2.46228,1.1904 4.7969,1.5534 8.11766,1.2623 7.68587,0.7625 10.16353,11.764 0.34063,1.5125 0.98709,2.75 1.43656,2.75 0.44947,0 1.96576,-2.6619 3.36953,-5.9153 z m 50.32203,-4.6137 c 0.76871,-6.1526 0.96167,-6.359 7.95311,-8.5063 2.75,-0.84468 5,-1.96977 5,-2.50024 0,-0.53048 -2.025,-1.64559 -4.5,-2.47804 -6.82817,-2.29661 -7,-2.51865 -7,-9.04548 0,-3.26754 -0.41987,-5.94098 -0.93305,-5.94098 -0.51318,0 -2.59239,2.025 -4.62046,4.5 -2.02808,2.475 -4.38115,4.5 -5.22906,4.5 -0.84791,0 -3.93824,-0.75546 -6.86741,-1.6788 -2.92916,-0.92334 -5.59959,-1.40496 -5.93428,-1.07027 -0.33469,0.33468 0.78485,2.63372 2.48787,5.10897 1.70301,2.47525 3.09639,5.01864 3.09639,5.65198 0,0.63334 -1.575,3.07366 -3.5,5.42286 -1.925,2.3492 -3.5,4.6217 -3.5,5.0499 0,0.4283 1.9125,0.4564 4.25,0.062 10.69064,-1.8014 9.98066,-1.9565 13.55197,2.9605 1.81608,2.5004 3.69709,4.302 4.18001,4.0035 0.48293,-0.2985 1.18713,-3.0165 1.56491,-6.0401 l 0,5e-4 z m -97.05623,-9.46295 c 5.05167,-4.37219 4.33845,-4.37375 13.76357,0.0299 3.97797,1.85865 4.32302,0.68885 1.36037,-4.61191 -1.43803,-2.57288 -2.6146,-5.20498 -2.6146,-5.84909 0,-0.6441 1.79174,-2.92068 3.98164,-5.05907 2.18991,-2.13838 3.72133,-4.14221 3.40317,-4.45294 -0.31817,-0.31074 -3.54579,-0.56498 -7.17251,-0.56498 l -6.59402,0 -3.02057,-5.26286 c -1.66131,-2.89457 -3.48353,-5.10853 -4.04939,-4.91991 -0.56585,0.18861 -1.3901,2.5569 -1.83166,5.26285 -0.92673,5.67925 -2.67765,7.39185 -7.65779,7.49021 -1.95738,0.0387 -4.45887,0.42391 -5.55887,0.85613 -2.15107,0.84521 -1.83017,1.11445 7.57376,6.35451 l 3.19609,1.78092 -0.66277,6.46908 c -0.4053,3.95591 -0.2871,6.46911 0.30425,6.46911 0.53187,0 3.04256,-1.7964 5.57933,-3.99195 z m 132.54899,-12.00809 c 0.86149,0 3.47578,1.40422 5.80954,3.12048 2.33375,1.71626 4.52426,2.8394 4.86779,2.49587 0.34354,-0.34353 0.0978,-2.90708 -0.54618,-5.69677 -1.7046,-7.3847 -1.637,-7.58798 3.8292,-11.51505 2.75,-1.97568 5,-3.97937 5,-4.45265 0,-0.47327 -2.9962,-0.99356 -6.65823,-1.15619 l -6.65823,-0.29569 -1.83534,-5.41024 c -1.00944,-2.97563 -2.053,-5.62789 -2.31902,-5.89391 -0.26603,-0.26603 -1.8251,2.50608 -3.46461,6.16023 l -2.98092,6.64392 -5.98281,0 c -6.7809,0 -8.72949,1.51542 -5.05425,3.93069 1.31338,0.86312 3.50145,2.52028 4.86237,3.68257 l 2.47441,2.11325 -2.14151,5.81342 c -1.17783,3.19738 -1.91512,6.17973 -1.63842,6.62744 0.2767,0.44771 2.83562,-0.75679 5.68648,-2.67667 2.85086,-1.91989 5.88824,-3.4907 6.74973,-3.4907 z m 32.55496,-30.57112 2.09461,-2.89322 6.26103,1.29319 c 3.44357,0.71126 6.48883,1.0654 6.76725,0.78698 0.27842,-0.27842 -1.11912,-2.48973 -3.10564,-4.91401 C 307.62534,948.63449 306,946.01428 306,945.2361 c 0,-0.77818 1.125,-3.07046 2.5,-5.09395 2.93247,-4.31552 3.19131,-6.21816 0.75,-5.5129 -0.9625,0.27805 -3.8893,1.09935 -6.50399,1.8251 l -4.754,1.31956 -4.996,-4.92088 c -2.74781,-2.70649 -5.08046,-4.4878 -5.18368,-3.95848 -0.10321,0.52933 -0.21571,3.62287 -0.25,6.87454 l -0.0623,5.91214 -5.75,2.08163 c -3.1625,1.14489 -5.75,2.61466 -5.75,3.26615 0,0.65148 2.43864,1.73026 5.4192,2.39728 7.36573,1.64838 7.73099,1.9822 8.26856,7.55699 0.74449,7.72061 1.12388,8.2721 3.63554,5.28473 1.19719,-1.42392 3.11927,-3.8909 4.27131,-5.48217 l -3e-5,0 z m -75.20949,-22.51718 c 3.19689,-2.51467 5.96548,-7.55567 5.21862,-9.50196 -0.76458,-1.99245 -11.91003,-1.95053 -13.57119,0.051 -1.93979,2.3373 -2.57255,9.58366 -0.9278,10.62512 2.40054,1.52002 6.51743,0.99913 9.28037,-1.1742 l 0,4e-5 z m 20.91454,-1.51966 c 3.46356,-1.74021 6.64249,-5.13999 6.6781,-7.14204 0.0156,-0.87408 -1.93257,-1.25 -6.47776,-1.25 -6.02713,0 -6.51153,0.16369 -6.65844,2.25 -0.27813,3.94955 0.17443,6.14127 1.4332,6.94097 1.59494,1.01328 1.33615,1.05442 5.0249,-0.79893 z m -37.82831,-4.74743 c 3.23257,-2.36371 1.2348,-4.81116 -3.63448,-4.45255 -4.64069,0.34176 -5.75237,1.74959 -3.31008,4.19187 1.9719,1.9719 4.47578,2.06589 6.94456,0.26068 z M 320,917.87987 c 1.67191,-6.48339 2.44859,-7.15795 9.25,-8.03379 2.6125,-0.33641 4.75,-1.05268 4.75,-1.5917 0,-0.53902 -2.28663,-2.40148 -5.0814,-4.1388 l -5.0814,-3.15877 0.68289,-6.79993 c 0.37559,-3.73995 0.35005,-6.79992 -0.0568,-6.79992 -0.40681,0 -2.71839,1.82393 -5.13683,4.05317 l -4.39717,4.05317 -5.31197,-3.0392 c -2.92158,-1.67156 -5.57976,-2.7714 -5.90707,-2.44409 -0.32731,0.32731 0.27898,2.81268 1.34731,5.52305 2.6811,6.80201 2.52157,7.68808 -2.26173,12.56191 -4.96885,5.06288 -4.32763,6.41699 2.52977,5.34234 5.68576,-0.89103 6.69359,-0.18535 9.23344,6.46515 0.95613,2.5036 2.23399,4.38824 2.83968,4.18809 0.60569,-0.20016 1.77625,-2.98146 2.60125,-6.18068 l 3e-5,0 z m -58.21891,-26.02291 c 0.29023,-26.84433 0.0436,-30.51139 -2.05014,-30.48374 -0.67702,0.009 -5.50595,3.22147 -10.73095,7.13896 -11.46998,8.5997 -14.29371,9.86996 -23.48595,10.56517 C 214.29501,879.92584 209,875.85284 209,866.3745 c 0,-5.91277 2.40175,-10.81853 8.15797,-16.66329 l 5.0678,-5.14575 -2.86288,-0.55547 c -1.57459,-0.3055 -21.38356,-0.85852 -44.01994,-1.22893 l -41.15706,-0.67347 -0.67885,6.37468 c -0.83537,7.84444 -0.28513,33.43681 0.74087,34.45883 0.41135,0.40976 3.11135,-0.44485 6,-1.89914 12.58351,-6.33512 22.39309,-8.11532 29.15352,-5.29063 6.47157,2.70399 8.04755,7.99682 5.02363,16.87155 -1.15894,3.40131 -3.49669,6.44766 -8.85057,11.53333 -4.0016,3.80113 -8.69288,7.74833 -10.42506,8.77155 -2.71193,1.60198 -3.81159,2.96853 -2.89943,3.60313 0.56369,0.39216 65.85929,1.43138 86.75,1.38068 l 22.5,-0.0546 0.28109,-26 0,-1e-5 z M 126.4433,889.13445 C 127.75296,887.26465 128,882.88459 128,861.53431 l 0,-25.37764 52.25,0.56025 c 30.36371,0.32558 50.36506,0.19862 47.75,-0.30309 -5.73577,-1.10043 -104.86107,-3.5289 -105.79891,-2.59197 -0.87529,0.87445 -1.44479,53.73645 -0.60256,55.93127 0.86893,2.26439 3.01757,1.99001 4.84477,-0.61868 z M 67.4347,863.85696 c 2.3492,-1.925 4.81886,-3.5 5.48812,-3.5 0.66926,0 3.24203,1.39338 5.71728,3.09639 2.47525,1.70302 4.77429,2.82256 5.10897,2.48787 0.33469,-0.33469 -0.14693,-3.00512 -1.07027,-5.93428 C 81.75546,857.07777 81,854.02692 81,853.22728 c 0,-0.79965 2.04845,-3.4601 4.5521,-5.91211 l 4.5521,-4.45821 -6.72074,-0.5 -6.72075,-0.5 -1.58136,-4.70703 c -2.5875,-7.70192 -3.6009,-7.82049 -5.73578,-0.67114 -2.03712,6.82193 -3.05932,7.57656 -10.53655,7.77849 -2.03004,0.0548 -3.96125,0.53699 -4.29158,1.07147 -0.33033,0.53448 1.66811,2.6017 4.44098,4.5938 2.77287,1.99211 5.03624,4.14231 5.02971,4.77822 -0.007,0.6359 -0.67619,3.63119 -1.48813,6.65619 -1.7736,6.60778 -1.73123,6 -0.4183,6 0.59494,0 3.00379,-1.575 5.353,-3.5 z m 31.52637,-41.86164 c -0.11507,-2.8261 -0.15339,-5.67786 -0.0852,-6.33726 0.0682,-0.65939 2.60823,-1.98196 5.6444,-2.93903 3.03618,-0.95707 5.36124,-2.21738 5.16681,-2.80068 -0.19444,-0.58331 -2.55638,-1.87846 -5.24878,-2.87813 C 97.52444,804.47314 97,803.82121 97,797.79353 c 0,-6.13289 -1.60632,-7.9269 -3.93069,-4.38998 -0.86312,1.31338 -2.51923,3.50023 -3.68023,4.85966 -2.10433,2.46397 -2.12475,2.46642 -6.53344,0.78272 C 78.5334,797.39525 75,796.85942 75,797.85465 c 0,0.27372 1.575,2.68997 3.5,5.36943 1.925,2.67945 3.5,5.2286 3.5,5.66476 0,0.43617 -1.40789,2.98703 -3.12864,5.66859 -1.72076,2.68157 -2.83129,5.17293 -2.46786,5.53636 0.36343,0.36343 2.67778,0.12132 5.14299,-0.53802 6.76271,-1.80875 7.63818,-1.52249 11.78392,3.85311 2.10673,2.73169 4.28254,4.68729 4.83515,4.34576 0.55261,-0.34153 0.91059,-2.93323 0.79551,-5.75932 z m 69.6494,5.59633 C 169.88688,826.74717 173,820.95858 173,819.42967 c 0,-0.56463 -1.0824,-1.73582 -2.40533,-2.60263 -2.11604,-1.38649 -2.81319,-1.40562 -5.79669,-0.15903 -3.59259,1.50108 -8.79798,6.93388 -8.79798,9.18234 0,0.73697 0.5625,1.56692 1.25,1.84433 1.95307,0.78808 10.12559,0.71396 11.36047,-0.10303 z m 17.78881,-0.0717 c 0.79378,-1.28438 -2.30676,-5.16299 -4.12724,-5.16299 -2.02482,0 -5.27204,2.86716 -5.27204,4.65499 0,1.50637 8.49838,1.96566 9.39928,0.50798 l 0,2e-5 z m -38.58927,-4.40706 c 0.26481,-3.19808 -0.0646,-3.91477 -2.25854,-4.91441 -1.97564,-0.90016 -3.08597,-0.89107 -4.81001,0.0394 -2.71609,1.46588 -6.85914,7.11966 -6.10794,8.33513 0.29739,0.48118 3.314,0.74192 6.70359,0.57942 l 6.16289,-0.29547 0.31001,-3.74409 0,2e-5 z m -25.23006,-34.50593 c 1.13711,-3.1625 2.7093,-5.83481 3.49376,-5.93846 0.78446,-0.10366 4.01379,-0.47354 7.17629,-0.82196 3.1625,-0.34842 5.75,-1.01441 5.75,-1.47998 0,-0.46556 -1.58694,-1.82726 -3.52652,-3.02599 -6.50513,-4.02039 -6.67889,-4.42176 -4.45136,-10.28242 1.08728,-2.86065 1.9771,-5.53869 1.97738,-5.95119 9.8e-4,-1.46943 -2.20189,-0.70683 -6.4995,2.25 -2.39819,1.65 -4.91488,3 -5.59263,3 -0.67775,0 -3.42628,-1.40789 -6.10784,-3.12864 -2.68157,-1.72076 -5.15556,-2.84866 -5.49777,-2.50645 -0.34221,0.34221 -0.0714,2.5376 0.60178,4.87864 0.67319,2.34105 1.44102,5.01372 1.70629,5.93927 0.33333,1.16304 -1.22754,2.97377 -5.05337,5.86231 -3.04463,2.29871 -5.2888,4.57894 -4.98705,5.06717 0.30174,0.48824 3.42407,0.8877 6.93851,0.8877 l 6.38988,0 1.73372,5.5 c 0.95355,3.025 2.21685,5.5 2.80734,5.5 0.59049,0 2.00398,-2.5875 3.14109,-5.75 z M 247.5,774.53229 l 1,-5.67533 6,-1.02887 c 3.3,-0.56587 6,-1.46587 6,-2 0,-0.53412 -2.025,-1.93594 -4.5,-3.11515 -6.97613,-3.32377 -7.2625,-3.78622 -6.48627,-10.4743 0.83348,-7.1813 -0.0698,-7.46738 -6.08136,-1.9261 l -4.2913,3.95558 -6.07259,-2.62019 c -3.33993,-1.44111 -6.35118,-2.3416 -6.69168,-2.0011 -0.3405,0.3405 0.82207,3.1727 2.5835,6.29377 l 3.20259,5.67469 -4.28559,4.36669 c -5.05304,5.14868 -4.46352,6.63258 2.1227,5.34311 7.43796,-1.45623 7.8064,-1.30961 11.59618,4.61477 1.96424,3.0706 3.87115,5.287 4.23758,4.92534 0.36643,-0.36167 1.11624,-3.21147 1.66624,-6.33291 z m -80.75399,-8.27272 c 2.61469,0.72575 5.54149,1.54705 6.50399,1.8251 2.49551,0.72092 2.20299,-1.59681 -0.75,-5.94252 -1.375,-2.0235 -2.5,-4.24842 -2.5,-4.94428 0,-0.69587 1.88443,-3.18531 4.18763,-5.53209 2.3032,-2.34679 3.87634,-4.57818 3.49587,-4.95865 -0.38046,-0.38047 -2.97423,-0.1649 -5.76392,0.47903 -7.59742,1.7537 -8.13931,1.57815 -11.82609,-3.83113 -1.87358,-2.74894 -3.73359,-4.99807 -4.13337,-4.99807 -1.02227,0 -1.93036,3.83244 -1.94647,8.21482 -0.0156,4.24045 -0.87754,4.90221 -8.81003,6.7639 -2.91301,0.68366 -5.14556,1.69547 -4.96122,2.24847 0.18433,0.553 2.7927,1.99961 5.79637,3.21469 l 5.46123,2.20923 0.0866,5.92445 c 0.0476,3.25844 0.16011,6.35752 0.25,6.88685 0.0899,0.52932 2.41164,-1.25199 5.15945,-3.95848 l 4.996,-4.92088 4.754,1.31956 -4e-5,0 z m 41.75894,-1.85328 -0.69802,-6.95066 5.62522,-3.59841 c 6.07697,-3.8874 6.39188,-5.50026 1.07393,-5.50026 -6.17714,0 -8.23836,-1.42021 -8.98073,-6.18784 -1.47285,-9.4589 -2.4261,-9.56424 -6.56591,-0.72557 l -2.41219,5.15013 -5.77324,-0.5235 c -3.3468,-0.30347 -6.03179,-0.10514 -6.38843,0.47191 -0.33835,0.54747 1.01147,2.66126 2.99962,4.6973 4.15939,4.25961 4.37083,5.7153 1.6148,11.11757 -2.04927,4.0169 -2.58307,7.00398 -1.25,6.99488 0.4125,-0.003 2.55,-1.11378 4.75,-2.46879 5.40042,-3.32621 7.5049,-3.14799 11.5,0.97391 1.86578,1.925 3.79973,3.5 4.29766,3.5 0.52055,0 0.60865,-2.95412 0.20729,-6.95067 z"
         id="path2833" />
      <path
         style="fill:#282b32"
         d="m 195.53501,1051.4136 c -0.25684,-0.4156 -4.98229,-0.5382 -10.501,-0.2724 L 175,1051.6244 l 0,-11.1337 c 0,-8.1983 0.32957,-11.1545 1.25,-11.2125 7.75268,-0.4886 14.44562,0.3935 16.22006,2.1378 1.72868,1.6994 1.82249,2.3276 0.76568,5.1274 -1.01404,2.6865 -0.94867,3.4733 0.41359,4.9786 0.88988,0.9833 1.95644,1.5786 2.37014,1.3229 0.4137,-0.2557 1.54773,-3.4038 2.52006,-6.9959 1.4295,-5.281 2.21655,-6.6437 4.11194,-7.1194 3.74207,-0.9392 5.07641,0.1424 8.42794,6.8316 4.41475,8.8112 4.63817,9.0269 7.44524,7.1877 1.77691,-1.1643 2.82363,-1.2759 4.34255,-0.463 2.62181,1.4031 5.83332,1.3646 6.72656,-0.081 1.07859,-1.7452 -2.52489,-3.8483 -6.59376,-3.8483 -4.13608,0 -6.50325,-1.5078 -7.46871,-4.7573 -0.50932,-1.7142 0.0627,-2.9905 2.37776,-5.3056 2.66274,-2.6628 3.63911,-3.0098 7.71725,-2.7428 3.06222,0.2005 5.03603,0.8914 5.7359,2.0077 1.70018,2.7119 0.24222,3.3017 -6.3622,2.5736 -1.67805,-0.185 -2.5,0.2175 -2.5,1.2244 0,1.0797 1.50114,1.6507 5.35838,2.0379 6.1376,0.6163 8.4008,2.7353 7.93567,7.4301 -0.59049,5.9603 -11.15464,9.7694 -16.57154,5.9753 -2.07355,-1.4524 -2.22251,-1.4234 -2.22251,0.4326 0,2.6987 -3.64304,3.7571 -5.9004,1.7142 -2.40127,-2.1731 -7.40988,-2.0098 -9.50938,0.3102 -1.90791,2.1082 -5.33146,3.3274 -6.05521,2.1563 z M 188,1044.8921 c 0,-0.8056 -0.9525,-1.9745 -2.11666,-2.5976 -1.66919,-0.8933 -2.43413,-0.8153 -3.61833,0.3689 -2.03368,2.0337 -0.77806,3.6936 2.79401,3.6936 1.91614,0 2.94098,-0.5105 2.94098,-1.4649 z m 18.81955,-4.7749 c -0.4742,-3.3238 -3.81955,-3.6159 -3.81955,-0.3336 0,1.9355 0.51297,2.5734 2.06955,2.5734 1.57185,0 1.9927,-0.5387 1.75,-2.2398 z m -20.92383,-2.6746 c 1.88383,-1.1929 0.63956,-4.0856 -1.75735,-4.0856 -2.31257,0 -3.42312,2.3152 -1.86023,3.8781 1.33966,1.3397 1.78885,1.3654 3.61758,0.2075 z m -29.09425,10.6644 c -0.86943,-0.6875 -2.11534,-2.9375 -2.76868,-5 -1.37804,-4.3503 -5.02134,-5.4329 -5.0481,-1.5 -0.023,3.3805 -1.43715,4.9637 -4.09778,4.5875 -2.25513,-0.3189 -2.36949,-0.6688 -2.07133,-6.3375 l 0.31558,-6 -3.10854,3.2417 c -3.81321,3.9766 -7.02648,4.8733 -12.05956,3.3653 -5.18251,-1.5527 -7.96306,-5.2639 -7.96306,-10.6284 0,-3.8454 -0.26274,-4.3013 -2.75,-4.7716 -1.5125,-0.2861 -3.75451,-0.8375 -4.98224,-1.2255 -1.81191,-0.5727 -2.5651,-0.1207 -4,2.4002 -1.90846,3.3528 -4.30127,3.9877 -6.23727,1.655 -0.98577,-1.1878 -0.30533,-3.1646 3.61427,-10.5 2.65577,-4.9702 5.22166,-9.0367 5.70198,-9.0367 2.09623,0 12.99637,6.596 13.39045,8.103 0.33485,1.2804 1.56726,1.6462 5.35449,1.5891 5.69752,-0.086 9.49739,2.1663 12.03377,7.1328 l 1.62544,3.1828 1.46716,-2.2096 c 1.40456,-2.1154 1.73485,-2.1599 7.74032,-1.0431 3.45023,0.6417 7.34606,1.8696 8.65739,2.7289 3.17197,2.0783 3.15957,6.4391 -0.0268,9.4325 -2.27314,2.1355 -2.33034,2.4583 -1,5.6422 0.77608,1.8574 1.41105,4.0666 1.41105,4.9092 0,1.8487 -3.01077,2.0121 -5.19853,0.2822 z m -21.14538,-16.4694 c 1.67416,-4.0068 1.03484,-6.9266 -1.70724,-7.7969 -2.916,-0.9255 -5.50612,0.2492 -6.79709,3.0825 -1.69556,3.7214 -1.41143,6.1385 0.91293,7.7665 2.97593,2.0844 5.94378,0.8912 7.5914,-3.0521 z M 157,1032.4736 c 0,-2.0699 -3.88798,-3.6287 -5.36554,-2.1511 -1.55273,1.5527 0.19064,4.0345 2.83416,4.0345 1.81246,0 2.53138,-0.5349 2.53138,-1.8834 z m -35.2,-10.3166 c 1.90156,-1.9016 1.46878,-2.6223 -2.91898,-4.8607 -3.12143,-1.5925 -4.39289,-1.8197 -5.25,-0.9381 -0.8482,0.8724 -0.26527,1.8929 2.33121,4.081 3.91603,3.3002 4.17819,3.3773 5.83777,1.7178 z m 118.70408,21.0537 c -0.28203,-0.7445 -1.62963,-5.4037 -2.99468,-10.3537 -2.30413,-8.3554 -2.36175,-9.0896 -0.80452,-10.25 2.2929,-1.7087 3.07236,-1.5796 4.52719,0.75 1.68689,2.7011 2.44441,2.5263 4.25918,-0.9831 2.72384,-5.2673 10.76679,-7.7424 15.02987,-4.6251 1.66044,1.2141 1.7239,1.608 0.49715,3.0862 -0.99648,1.2006 -2.2656,1.5225 -4.35542,1.1045 -1.62218,-0.3244 -3.55969,-0.083 -4.30601,0.5363 -2.05567,1.706 -1.67441,7.5636 0.64316,9.8812 3.08308,3.083 5.64884,2.4963 7.91796,-1.8107 1.7249,-3.2741 5.69188,-2.6652 5.30286,0.8139 -0.74076,6.6248 -11.43889,10.4297 -17.24841,6.1345 -1.59028,-1.1758 -3.09183,-2.1377 -3.33676,-2.1377 -0.24494,0 -0.20391,1.8 0.0912,4 0.33094,2.4673 0.13424,4 -0.51337,4 -0.57744,0 -1.7579,0.2717 -2.62324,0.6037 -0.87838,0.3371 -1.79986,0.01 -2.08614,-0.75 z m 37.2401,-21.0898 c -7.86322,-12.4107 -8.01475,-12.733 -6.72075,-14.2922 2.56329,-3.0885 4.66618,-1.5708 9.85681,7.1143 2.8223,4.7223 4.87876,8.9949 4.56991,9.4946 -0.30884,0.4997 -1.41863,1.3673 -2.46619,1.9279 -1.64251,0.8791 -2.36365,0.2949 -5.23978,-4.2446 z M 284,1013.3483 c -3.025,-3.8265 -5.62916,-7.5551 -5.78702,-8.2858 -0.15787,-0.7307 0.58182,-2.1148 1.64374,-3.0759 1.81786,-1.6451 2.26292,-1.6507 7.61117,-0.096 3.12423,0.9083 5.94522,1.3866 6.26886,1.0629 0.32365,-0.3236 -0.60674,-2.2682 -2.06754,-4.32133 -2.64499,-3.71743 -2.64781,-3.74108 -0.68054,-5.70834 1.96726,-1.96727 1.98841,-1.96321 5.1048,0.97883 l 3.12936,2.95428 -0.66812,-3.14641 c -1.33862,-6.30405 4.71279,-14.35357 10.79064,-14.35357 4.84748,0 4.42843,4.69524 -0.50714,5.68236 -5.73042,1.14608 -5.97261,7.21779 -0.43271,10.84768 3.26061,2.13643 6.43081,1.0962 7.15174,-2.34669 1.44321,-6.89226 4.77947,-7.91071 5.2421,-1.60025 0.25425,3.46794 -0.17607,4.54791 -2.85622,7.16825 -4.03515,3.94509 -7.02274,4.66009 -11.55682,2.76559 -4.86321,-2.03198 -4.826,-2.07159 -2.29105,2.4387 1.8415,3.2766 2.00316,4.2209 0.94154,5.5 -1.54172,1.8577 -3.56165,1.9312 -9.4903,0.3456 -2.46521,-0.6594 -4.77076,-0.9103 -5.12344,-0.5576 -0.35268,0.3527 0.34035,2.0197 1.54007,3.7046 2.54829,3.5787 2.34715,6.4581 -0.47334,6.7761 -1.40168,0.158 -3.61535,-1.832 -7.48978,-6.733 z m -110.32735,4.9018 c -2.63191,-9.7926 -2.9687,-10.2712 -8.37051,-11.894 -7.30678,-2.1951 -7.40907,-2.8883 -0.20719,-1.4042 3.34834,0.69 6.32601,1.4927 6.61704,1.7837 0.7905,0.7905 3.27301,11.9697 2.7698,12.4729 -0.23909,0.2391 -0.6032,-0.1922 -0.80914,-0.9584 z m 3.32735,0.802 c 0,-0.3509 1.12361,-3.1788 2.49691,-6.2841 2.18361,-4.9375 2.77961,-5.5702 4.75,-5.0421 1.2392,0.3321 4.05309,0.6855 6.25309,0.7855 3.17727,0.1444 2.7659,0.3015 -2,0.7637 -5.86133,0.5684 -6.04633,0.6783 -8.00456,4.7531 -1.96562,4.0902 -3.49544,6.289 -3.49544,5.0239 z m 46.53139,-5.6344 c -2.31749,-4.4816 -5.10479,-6.0435 -8.86195,-4.9659 -4.67881,1.3418 -8.65768,1.0994 -9.29695,-0.5665 -0.31553,-0.8223 0.80154,-3.1293 2.53138,-5.2279 3.66595,-4.44741 3.76734,-5.47833 0.98206,-9.98501 -1.16273,-1.88134 -1.90359,-3.63111 -1.64634,-3.88836 0.59274,-0.59273 5.76041,7.15212 5.76041,8.63319 0,0.60673 -1.575,3.02528 -3.5,5.37448 -1.925,2.3492 -3.5,4.6116 -3.5,5.0277 0,0.416 1.4625,0.5202 3.25,0.2315 12.14355,-1.9614 10.93872,-2.1884 14.5,2.7318 3.48477,4.8145 3.79493,5.5743 2.27568,5.5743 -0.53588,0 -1.65831,-1.3227 -2.49429,-2.9393 z m 5.88916,-3.9805 c 0.5937,-3.2559 1.43219,-6.2711 1.86332,-6.7005 0.43112,-0.4295 3.30343,-1.5604 6.3829,-2.5132 6.71563,-2.07783 5.46894,-0.22777 -1.37748,2.0442 -4.40189,1.4607 -4.81113,1.8724 -5.05923,5.0893 -0.39121,5.0722 -1.15189,8 -2.07856,8 -0.44572,0 -0.32464,-2.6639 0.26905,-5.9198 z m -39.23292,-6.3891 C 187.88443,1000.7014 186,998.0708 186,997.20246 c 0,-1.86225 4.11812,-12.06071 4.65379,-11.52504 0.20216,0.20216 -0.31224,2.29433 -1.14311,4.64928 -2.21829,6.28731 -1.90628,8.0408 2.17434,12.2197 2.02677,2.0756 3.4612,3.9977 3.18764,4.2712 -0.27357,0.2736 -2.38183,-1.4227 -4.68503,-3.7695 z m -64.71611,0.2628 c -0.35559,-0.5754 -0.34891,-3.21 0.0148,-5.85474 0.75478,-5.48795 -0.13538,-6.85917 -6.59069,-10.15243 C 116.75305,986.21065 115,984.90244 115,984.39659 c 0,-0.50584 2.5875,0.54684 5.75,2.3393 l 5.75,3.25901 -0.21903,6.68103 c -0.12046,3.67457 0.18967,6.68107 0.68918,6.68107 0.49952,0 2.98374,-1.7964 5.52051,-3.99195 5.05167,-4.37219 4.33845,-4.37375 13.76357,0.0299 3.97797,1.85865 4.32302,0.68885 1.36037,-4.61191 -1.43803,-2.57288 -2.6146,-5.20498 -2.6146,-5.84909 0,-0.6441 1.8,-2.92875 4,-5.07699 2.2,-2.14824 4,-3.44876 4,-2.89004 0,0.55872 -1.35,2.30924 -3,3.89004 -3.55798,3.40876 -3.64542,4.31455 -0.93022,9.63679 2.15192,4.2181 1.99581,6.86325 -0.40504,6.86325 -0.76892,0 -3.72566,-0.9674 -6.57053,-2.14963 l -5.17249,-2.14959 -2.71086,2.5274 c -2.50115,2.33192 -6.38005,4.77182 -7.5861,4.77182 -0.2787,0 -0.79766,-0.4708 -1.15324,-1.0461 z m 33.58958,-1.7132 c 0.0336,-0.4074 1.94611,-2.12595 4.25,-3.81899 2.3039,-1.69303 4.13732,-3.76501 4.07428,-4.60439 -0.063,-0.83939 -0.39508,-3.72917 -0.73786,-6.42176 -0.45127,-3.54475 -0.3605,-4.27733 0.32894,-2.65495 0.52369,1.23236 1.2421,4.42619 1.59645,7.09741 l 0.64427,4.85676 -5.10859,3.14335 c -2.80972,1.72887 -5.08109,2.80997 -5.04749,2.40257 z M 238,995.45974 c -6.90576,-2.50122 -7.00146,-2.63017 -6.98469,-9.4118 0.0103,-4.15616 0.3174,-5.71345 0.93442,-4.73808 0.50551,0.7991 0.67836,2.65663 0.38412,4.12784 -0.77915,3.89574 1.09667,6.57376 6.17944,8.82211 2.46769,1.09158 4.48671,2.23499 4.48671,2.54092 0,0.30593 -0.1125,0.49608 -0.25,0.42255 -0.1375,-0.0735 -2.275,-0.86711 -4.75,-1.76354 z m 16,-1.49853 c 0,-0.82806 9.74372,-6.60425 11.14054,-6.60425 1.671,0 10.18946,6.00334 9.49866,6.69413 -0.24924,0.24925 -2.36254,-0.92997 -4.69622,-2.62048 -2.33368,-1.69051 -4.55782,-3.07365 -4.94254,-3.07365 -0.38471,0 -2.67969,1.34181 -5.09996,2.9818 -4.0982,2.77698 -5.90048,3.57799 -5.90048,2.62245 z m -3,-2.07735 c 0,-0.32513 0.675,-2.20664 1.5,-4.18114 2.2048,-5.27684 1.917,-6.43025 -2.5747,-10.31849 -5.47717,-4.74133 -4.70374,-6.49408 3.37368,-7.64547 6.01004,-0.85669 6.24771,-1.00577 8.34782,-5.23603 3.518,-7.0863 4.71763,-7.19688 1.58147,-0.14577 l -2.89105,6.5 -6.34051,0.5 c -3.48727,0.275 -6.5091,1.01285 -6.71516,1.63967 -0.20607,0.62681 1.1707,2.09475 3.05948,3.26208 5.72094,3.53574 6.06421,4.3621 4.1749,10.05028 -1.41046,4.2465 -3.51593,7.58494 -3.51593,5.57487 z m 24.11597,-5.1834 c -0.74226,-3.38608 -1.07117,-6.60697 -0.7309,-7.15754 1.0102,-1.63454 10.61493,-8.25818 10.61493,-7.3203 0,0.47429 -1.8269,2.12838 -4.05977,3.67576 -5.22805,3.62304 -6.18458,5.45918 -4.84533,9.30096 0.58281,1.67185 0.90463,4.07875 0.71515,5.34867 -0.21631,1.44977 -0.84669,0.0181 -1.69408,-3.84755 z m -102.13952,-0.98374 c -2.21612,-2.00213 -3.80753,-3.86202 -3.53646,-4.13308 0.27106,-0.27106 2.09861,0.91704 4.06122,2.64024 4.19562,3.6838 5.27547,3.79782 10.53863,1.11276 4.98975,-2.54559 5.10023,-1.82648 0.22803,1.48427 -4.95045,3.36391 -6.51513,3.2109 -11.29142,-1.10419 z M 212.5,987.27955 c -4.24559,-1.63234 -4.47191,-1.83842 -1.5,-1.36586 11.16669,1.77562 10.42587,1.88478 13.36557,-1.96937 1.50492,-1.97305 3.19344,-3.58736 3.75227,-3.58736 0.55883,0 -0.64328,2.025 -2.67135,4.5 -4.1528,5.06794 -5.43979,5.30877 -12.94649,2.42259 z M 18.33583,985.78974 c -0.33077,-0.86197 -0.16172,-2.00689 0.37567,-2.54428 1.3176,-1.3176 23.82024,-5.93547 55.59764,-11.40944 27.60063,-4.75448 32.8842,-6.15246 49.50478,-13.09848 11.06089,-4.62253 14.84955,-7.26153 19.74804,-13.75549 11.66881,-15.46944 15.39032,-20.89328 14.89055,-21.70193 -0.3138,-0.50774 -4.73089,-0.92316 -9.81575,-0.92316 -8.45847,0 -9.62351,0.24258 -13.69098,2.85069 -5.00552,3.20961 -13.83555,12.26985 -18.90638,19.39931 -3.41434,4.80048 -6.57409,6.12616 -7.68728,3.22523 -0.8321,-2.16841 3.61256,-8.44373 12.64205,-17.84906 5.96542,-6.21373 10.56172,-9.77591 19.51832,-15.12693 24.39003,-14.57154 35.13176,-27.75488 26.97125,-33.10185 -5.48614,-3.59466 -18.15017,0.20289 -32.56889,9.76639 -4.98575,3.3069 -11.79111,7.36512 -15.12303,9.01825 -6.52794,3.23885 -6.05169,3.23075 -20.79182,0.35364 -13.91116,-2.7153 -20.90178,-1.1167 -34.11737,7.80189 -5.16045,3.48255 -12.67345,8.27438 -16.69556,10.64853 -6.44263,3.8029 -7.48833,4.14122 -8.78675,2.8428 -2.08791,-2.0879 -1.00693,-3.96668 3.86686,-6.72078 2.32805,-1.31553 9.40782,-5.803 15.73282,-9.97215 6.325,-4.16915 13.75,-8.36561 16.5,-9.32547 6.52789,-2.27849 18.60908,-2.31531 29.3484,-0.0894 11.49636,2.38277 11.1516,3.02746 11.1516,-20.85315 0,-11.89575 -0.37998,-18.9847 -1.03946,-19.39228 -0.5717,-0.35333 -4.0592,1.94217 -7.75,5.10111 -9.60159,8.21798 -15.12807,11.4683 -28.71054,16.8857 -16.52349,6.59044 -24.31432,10.80383 -32.23236,17.43168 -11.68287,9.77924 -16.06033,12.79553 -24.53521,16.90602 C 6.56164,919.51523 0,920.93885 0,916.87217 c 0,-0.85116 1.6875,-2.29332 3.75,-3.20479 21.87286,-9.66617 29.25541,-14.14846 40.74653,-24.73909 5.30847,-4.89247 16.35055,-11.09434 26.71308,-15.0036 14.47448,-5.46049 23.24408,-10.46042 32.50398,-18.53197 5.06748,-4.41715 9.67998,-8.90263 10.25,-9.96773 0.57003,-1.0651 1.03641,-4.63684 1.03641,-7.93719 0,-9.06035 1.09819,-11.13084 5.90382,-11.13084 4.34375,0 5.56132,-0.9088 10.14686,-7.57367 5.12672,-7.45142 11.88027,-9.3551 19.22435,-5.41891 l 3.74542,2.00742 4.16675,-2.75742 c 5.81025,-3.84504 13.44823,-3.905 17.49714,-0.13735 1.57359,1.46427 4.53315,2.88048 6.70906,3.2104 4.48707,0.68034 8.09361,3.6685 10.46365,8.66953 l 1.65869,3.5 10.97739,0 10.97738,0 8.23533,-11 c 14.59674,-19.49699 26.63762,-29.06573 42.79416,-34.00798 9.06237,-2.77216 27.00029,-6.75196 29.97387,-6.65017 2.16873,0.0743 52.82383,-9.32657 58.66904,-10.88809 4.35296,-1.16286 6.85709,-0.40485 6.85709,2.07568 0,2.41969 -2.4114,3.11108 -27.5,7.88473 -11.55,2.19763 -29.55,5.62104 -40,7.60756 -29.20582,5.55197 -38.94048,9.43667 -50.52603,20.16286 C 238.97309,808.5973 225,826.0938 225,828.05209 c 0,2.83854 17.03318,3.28149 21.08362,0.54828 5.60844,-3.78453 20.58194,-17.29982 23.41638,-21.13594 4.96005,-6.71293 9.79854,-4.56265 5.47491,2.43312 -3.90962,6.3259 -27.48238,26.1478 -40.29206,33.88086 -6.90232,4.16684 -16.46476,12.59919 -18.03123,15.90028 -2.26727,4.77791 -2.12724,9.93786 0.33003,12.16167 1.6153,1.46182 3.14887,1.69967 8.29519,1.28658 7.57866,-0.60835 10.61396,-2.08623 21.72191,-10.57637 8.69595,-6.64658 18.1008,-11.7422 23.57155,-12.77124 1.68866,-0.31764 6.50719,0.13238 10.70784,1.00005 10.15364,2.09729 18.57744,2.00427 24.56618,-0.27127 6.02645,-2.28987 25.31434,-13.83762 32.18887,-19.27162 5.25788,-4.15611 7.96681,-4.47082 7.96681,-0.92554 0,1.25611 -2.08683,3.65465 -5.53289,6.35934 -6.14503,4.82303 -24.2022,15.79726 -30.78248,18.70802 -6.55677,2.90037 -15.75757,3.43515 -26.63741,1.54823 -10.19242,-1.76769 -14.50435,-1.423 -15.53067,1.24153 -0.81367,2.11241 0.52869,40.18889 1.41682,40.18889 0.35762,0 2.65641,-2.05846 5.10842,-4.57436 9.05761,-9.29358 19.30564,-15.3204 32.95821,-19.38255 11.66895,-3.47195 24.04915,-10.35502 32.26589,-17.93902 12.74962,-11.76782 19.65958,-16.30121 33.62165,-22.05804 7.71225,-3.17992 11.5408,-3.78001 12.6514,-1.98302 0.69952,1.13184 -2.21538,4.93699 -3.78193,4.93699 -2.14465,0 -17.51477,7.3933 -23.73386,11.41641 -3.69314,2.38907 -10.63584,8.03716 -15.42823,12.5513 -7.37612,6.94785 -10.43098,9.01961 -19.90418,13.49872 -6.15491,2.91016 -13.44074,5.86034 -16.19074,6.55595 -8.73194,2.20876 -18.52361,8.01245 -26.75108,15.85583 -10.41826,9.93188 -12.1501,12.8585 -11.51121,19.45268 0.63776,6.5825 0.20465,7.66599 -3.07104,7.68276 -5.07681,0.026 -6.97369,1.18884 -10.65243,6.5302 -5.8683,8.52052 -15.18538,11.86247 -20.78711,7.45615 -3.26552,-2.56866 -3.88918,-2.52086 -6.74293,0.51682 -5.32589,5.66915 -15.78107,5.38594 -20.002,-0.54182 -1.58833,-2.23061 -2.91455,-2.97594 -5.30029,-2.97874 -4.5953,-0.005 -9.27256,-3.2259 -10.62157,-7.31341 -1.38032,-4.18243 -2.78174,-4.65103 -13.96395,-4.6692 l -8.40361,-0.0136 -3.95035,4.25 c -2.17268,2.3375 -6.80163,8.32573 -10.28653,13.30717 -7.25207,10.36636 -14.23507,17.30266 -20.56568,20.42816 -9.66068,4.7696 -28.27853,11.08316 -38.05195,12.90392 C 90.15222,975.30555 79.2,977.1523 71.5,978.35013 c -7.7,1.19783 -21.72158,3.7144 -31.15907,5.59238 -19.49004,3.87834 -21.17154,4.0195 -22.0051,1.84728 z m 204.50918,-51.79772 c 3.03992,-2.76775 5.44647,-7.4331 4.75873,-9.22532 -0.60043,-1.56468 -11.10718,-2.01154 -13.38017,-0.56908 -0.70204,0.44553 -1.55123,3.13031 -1.8871,5.9662 -0.56532,4.77323 -0.43339,5.22639 1.77643,6.10194 2.98724,1.18357 5.71494,0.47331 8.73211,-2.27374 z m 20.15985,-0.63506 c 1.40469,0 6.99514,-6.05541 6.99514,-7.57692 0,-1.08329 -1.53594,-1.42308 -6.43261,-1.42308 -5.55436,0 -6.51928,0.27306 -7.06739,2 -1.23602,3.89434 1.45493,8.54688 4.33179,7.4895 0.73248,-0.26923 1.71037,-0.4895 2.17307,-0.4895 z m -37.53351,-5.35539 c 3.05348,-2.23276 1.25088,-4.64461 -3.47135,-4.64461 -2.84763,0 -4.25152,0.49189 -4.69386,1.64461 -0.69746,1.81753 2.03763,4.35539 4.69386,4.35539 0.88976,0 2.45187,-0.60993 3.47135,-1.35539 z m 56.30974,-36.14461 c 0.29023,-26.84433 0.0436,-30.51139 -2.05014,-30.48374 -0.67702,0.009 -5.50595,3.22147 -10.73095,7.13896 -11.46998,8.5997 -14.29371,9.86996 -23.48595,10.56517 C 214.29501,879.92584 209,875.85284 209,866.3745 c 0,-5.91277 2.40175,-10.81853 8.15797,-16.66329 l 5.0678,-5.14575 -2.86288,-0.55547 c -1.57459,-0.3055 -21.38356,-0.85852 -44.01994,-1.22893 l -41.15706,-0.67347 -0.67885,6.37468 c -0.83537,7.84444 -0.28513,33.43681 0.74087,34.45883 0.41135,0.40976 3.11135,-0.44485 6,-1.89914 12.58351,-6.33512 22.39309,-8.11532 29.15352,-5.29063 6.47157,2.70399 8.04755,7.99682 5.02363,16.87155 -1.15894,3.40131 -3.49669,6.44766 -8.85057,11.53333 -4.0016,3.80113 -8.69288,7.74833 -10.42506,8.77155 -2.71193,1.60198 -3.81159,2.96853 -2.89943,3.60313 0.56369,0.39216 65.85929,1.43138 86.75,1.38068 l 22.5,-0.0546 0.28109,-26 z M 126.4433,889.13445 C 127.75296,887.26465 128,882.88459 128,861.53431 l 0,-25.37764 52.25,0.56025 c 30.36371,0.32558 50.36506,0.19862 47.75,-0.30309 -5.73577,-1.10043 -104.86107,-3.5289 -105.79891,-2.59197 -0.87529,0.87445 -1.44479,53.73645 -0.60256,55.93127 0.86893,2.26439 3.01757,1.99001 4.84477,-0.61868 z m 44.7535,-65.24565 c 2.11135,-4.34581 2.12044,-4.52381 0.33201,-6.5 -1.01133,-1.11751 -2.46197,-2.03184 -3.22364,-2.03184 -2.86719,0 -8.873,3.92585 -10.64229,6.9566 -2.8076,4.80936 -1.72153,6.0434 5.31873,6.0434 l 6.04438,0 2.17081,-4.46816 z M 187,827.1857 c 0,-1.85089 -3.135,-4.82874 -5.08356,-4.82874 -2.13258,0 -4.91644,2.5885 -4.91644,4.57143 0,1.04762 1.33333,1.42857 5,1.42857 3.15406,0 5,-0.43241 5,-1.17126 z m -39.1925,-3.9769 c -0.35209,-4.74966 -2.2584,-6.45745 -6.12487,-5.48703 -2.68362,0.67354 -8.01011,7.2963 -7.07939,8.80224 0.28314,0.45812 3.43911,0.83295 7.01327,0.83295 l 6.49849,0 -0.3075,-4.14816 z m 174.19301,161.04624 c -9.14439,-3.72515 -11.1491,-12.4172 -4.49186,-19.47592 2.69074,-2.85302 3.93425,-3.42216 7.47707,-3.42216 3.60304,0 4.84024,0.59067 8.13193,3.88235 4.35925,4.35926 4.86348,7.24782 2.23287,12.79141 -2.625,5.53178 -8.41887,8.23312 -13.35001,6.22432 z m 7.57243,-6.66339 c 2.58404,-1.7694 2.40437,-4.41123 -0.49737,-7.31296 C 324.58662,965.78973 319,966.73549 319,971.98438 c 0,4.06969 7.22363,7.90068 10.57294,5.60727 z m -212.47825,3.70679 c 0.75042,-0.46379 3.0352,-1.12553 5.07729,-1.47054 4.56099,-0.77057 5.69064,-2.05527 6.62622,-7.53572 0.40668,-2.38221 1.38874,-4.49574 2.21606,-4.76926 1.1592,-0.38324 1.23873,-0.18073 0.36188,0.92142 -0.61812,0.77694 -1.43301,3.54895 -1.81088,6.16002 -0.42263,2.92038 -1.33708,5.08246 -2.37614,5.61803 -2.23665,1.15285 -11.88239,2.18107 -10.09443,1.07605 z m 20.61911,-4.15037 c -0.7624,-1.26011 -2.17086,-3.56765 -3.1299,-5.12787 -0.95904,-1.56022 -1.51871,-3.06177 -1.24371,-3.33677 0.45559,-0.45559 1.2792,0.68771 5.33579,7.40693 1.22698,2.03233 1.87497,2.17835 7.19806,1.62198 3.21733,-0.33628 6.08959,-0.21631 6.3828,0.2666 0.29322,0.48291 -2.54713,1.00902 -6.31187,1.16913 -6.22427,0.26471 -6.97069,0.0833 -8.23117,-2 z m 132.77149,-8.04111 c -2.5257,-6.98565 -3.42859,-10.14003 -3.01951,-10.54912 0.51212,-0.51211 0.68784,-0.12609 2.86742,6.29912 1.33991,3.94994 1.4308,4.00728 7.26185,4.58189 l 5.90495,0.58189 -6.28138,0.16811 c -4.24701,0.11366 -6.42776,-0.23673 -6.73333,-1.08189 z m 63.43234,-6.61574 c -11.41512,-6.30252 -10.62393,-5.42993 -8.65915,-9.55012 1.81858,-3.81359 2.79838,-4.10375 8.99685,-2.66439 2.06543,0.47962 3.96042,0.54018 4.21108,0.13459 0.25067,-0.40559 -1.10172,-2.24701 -3.00532,-4.09205 -3.94114,-3.81991 -4.12862,-4.80887 -1.75578,-9.26195 0.93793,-1.76019 2.87012,-6.79797 4.29377,-11.19507 1.86239,-5.7522 3.10839,-8.09487 4.44204,-8.3517 1.64258,-0.31634 1.76982,0.0815 1.11785,3.49473 -1.2339,6.4598 -1.13857,7.77311 0.58976,8.12431 1.17521,0.23881 2.06074,-0.90101 3.08333,-3.96879 1.681,-5.04301 4.4634,-5.96943 3.91589,-1.30382 -0.84284,7.18223 -0.70791,8 1.31998,8 1.42856,0 2.38881,-1.21086 3.50351,-4.41784 1.58535,-4.56105 3.68272,-6.25977 5.03242,-4.07591 0.94316,1.52607 -3.76709,15.96566 -5.41425,16.59774 -0.64826,0.24876 -3.12769,-0.23538 -5.50986,-1.07585 -2.38216,-0.84048 -5.28713,-1.5141 -6.45548,-1.49693 -1.66301,0.0244 -1.25573,0.55067 1.87573,2.42353 6.91231,4.1341 8.44862,5.51558 7.85478,7.06311 -0.73747,1.92181 -2.47012,1.87166 -6.8083,-0.19707 -4.9995,-2.3841 -5.72094,-0.7022 -1.29644,3.02239 6.496,5.4684 4.5132,8.66594 -4.29393,6.92455 C 338.23025,956.08571 336,956.00119 336,956.43686 c 0,0.43567 1.81904,1.81449 4.0423,3.06403 2.94493,1.65514 3.96296,2.8235 3.75,4.30377 -0.43271,3.00792 -2.5604,2.72491 -9.87467,-1.31344 z m -44.25096,1.19907 C 289.3,963.32363 289,961.39875 289,959.4128 c 0,-4.88774 -2.1981,-7.68282 -6.70713,-8.52872 -4.70416,-0.88251 -7.29736,-2.24094 -7.27756,-3.8123 0.0113,-0.89808 0.20687,-0.914 0.75,-0.0611 0.40408,0.63456 3.36588,1.84075 6.58178,2.68042 3.2159,0.83966 6.07398,1.75356 6.3513,2.03087 0.44434,0.44435 2.16632,12.63495 1.78474,12.63495 -0.0824,0 -0.4498,-0.3 -0.81646,-0.66667 z m 5.9288,-4.33333 c 3.97109,-5.52747 4.92343,-5.79094 12.90453,-3.57013 3.64156,1.0133 4.27055,1.41559 2.3151,1.48071 -1.4767,0.0492 -3.7909,-0.33108 -5.14268,-0.84503 -3.69215,-1.40375 -6.24532,-0.28936 -9.24103,4.03346 -1.48687,2.14554 -3.09144,3.90099 -3.56573,3.90099 -0.47428,0 0.75413,-2.25 2.72981,-5 z m 14.01639,-8.29818 c -1.98652,-2.42429 -3.60993,-5.03646 -3.60758,-5.80481 0.002,-0.76836 1.35043,-3.42201 2.99572,-5.89701 1.64529,-2.475 2.98336,-3.825 2.97348,-3 -0.01,0.825 -0.89794,2.625 -1.97348,4 -2.72078,3.47832 -2.48689,5.59745 1.12055,10.15221 1.71631,2.16701 2.89164,4.16893 2.61186,4.44871 -0.27978,0.27978 -2.13403,-1.47482 -4.12055,-3.8991 z M 280,943.3332 c 6.10816,-2.79334 6.99599,-4.21446 6.30068,-10.08528 -0.31859,-2.69003 -0.17908,-4.8874 0.31003,-4.88304 0.48911,0.004 1.01305,2.91861 1.16431,6.47612 l 0.27503,6.46821 -3.71667,1.55292 c -5.76546,2.40896 -9.44579,2.80904 -4.33338,0.47107 z m 13,-10.47624 c -5.52944,-5.63409 -4.0844,-5.98067 1.61483,-0.38731 l 4.19052,4.11269 5.16211,-1.71457 c 2.83916,-0.94302 5.38234,-1.49434 5.65152,-1.22516 0.59134,0.59134 -8.31176,3.71435 -10.58891,3.71435 -0.88751,0 -3.60104,-2.025 -6.03007,-4.5 z m 19.96993,-13.31031 -2.48402,-4.68969 -5.10663,0.26673 c -7.21921,0.37708 -8.61981,-1.50329 -4.74977,-6.37676 5.55339,-6.99327 5.40198,-6.44991 3.38267,-12.13997 -1.02472,-2.8875 -1.53557,-5.25 -1.1352,-5.25 0.83499,0 4.1354,8.76449 4.12797,10.96215 -0.003,0.80418 -1.89681,3.38982 -4.20909,5.74586 -4.9424,5.03593 -4.32128,6.41624 2.41199,5.36022 2.58932,-0.4061 5.15932,-0.45934 5.71112,-0.11831 1.13064,0.69877 5.44354,10.02091 4.89156,10.57288 -0.19612,0.19612 -1.47439,-1.75377 -2.8406,-4.33311 z m 6.77405,-0.93969 c 0.78961,-3.1625 1.95774,-6.25877 2.59584,-6.88059 1.54899,-1.50948 12.06929,-2.84039 11.18864,-1.41546 -0.35557,0.57533 -2.22452,1.04605 -4.15322,1.04605 -5.13205,0 -7.20175,1.50588 -7.91953,5.76215 -0.92615,5.4919 -1.4976,7.23785 -2.36894,7.23785 -0.42815,0 -0.13241,-2.5875 0.65721,-5.75 z m 8.92407,-14.53157 -4.83195,-3.1076 0.68344,-6.80542 c 0.37589,-3.74297 0.3506,-6.80541 -0.0562,-6.80541 -0.40681,0 -2.71373,1.81964 -5.12648,4.04364 l -4.38683,4.04363 -4.9713,-2.79363 c -2.73421,-1.5365 -4.5238,-2.94336 -3.97687,-3.12635 0.54694,-0.18299 2.55217,0.63002 4.45608,1.8067 3.85907,2.38504 5.36076,2.00715 9.46639,-2.38217 1.33338,-1.4255 3.31095,-2.59182 4.39461,-2.59182 1.82193,0 1.92427,0.49278 1.35918,6.54422 l -0.61111,6.54422 4.46651,3.14828 c 2.45657,1.73155 4.4665,3.51166 4.4665,3.95578 0,1.01809 0.3517,1.18129 -5.33195,-2.47407 z M 22.50868,883.47047 c -5.86869,-0.72135 -6.02683,-1.09159 -5.02639,-11.76777 0.58618,-6.25543 0.96514,-7.34574 2.55313,-7.34574 1.56872,0 1.91239,0.91287 2.16468,5.75 0.22222,4.26061 0.68127,5.75 1.77222,5.75 0.96097,0 1.73488,-1.53799 2.22829,-4.42829 0.84363,-4.94176 2.03171,-6.66419 3.83011,-5.55272 0.79581,0.49184 1.00613,2.1955 0.61938,5.01718 -0.42459,3.0977 -0.18203,4.6074 0.88214,5.49059 C 33.95882,878.3976 36,875.8023 36,870.70313 c 0,-3.08061 0.47217,-4.59013 1.56722,-5.01034 3.0878,-1.1849 3.7614,1.16451 2.82629,9.85768 l -0.89351,8.30649 -6,0.11351 c -3.3,0.0624 -8.24609,-0.16257 -10.99132,-0.5 z M 62,867.62283 c 0.825,-0.31693 3.34635,-2.0814 5.60299,-3.92105 2.25665,-1.83965 4.65057,-3.34482 5.31983,-3.34482 1.2875,0 10.07718,5.74821 10.07718,6.59019 0,0.27177 -1.95204,-0.64985 -4.33786,-2.04804 -5.54684,-3.25066 -6.84719,-3.19658 -11.00936,0.45785 -1.87924,1.65 -4.2574,2.96447 -5.2848,2.92105 -1.42423,-0.0602 -1.51164,-0.21583 -0.36798,-0.65518 z m -0.92399,-5.43544 c 1.47653,-7.64026 1.21638,-8.60856 -3.07601,-11.44913 -2.2,-1.45589 -4,-3.03653 -4,-3.51252 0,-0.476 2.25,0.75101 5,2.72669 5.5569,3.99223 5.44264,3.69028 3.86404,10.21171 -1.47059,6.07521 -2.87911,7.66903 -1.78803,2.02325 z m 21.63936,-2.06443 C 81.77192,857.12998 81,854.02692 81,853.22728 c 0,-0.79965 2.025,-3.44129 4.5,-5.87032 5.63409,-5.52944 5.98067,-4.0844 0.38731,1.61483 l -4.11269,4.19052 1.69454,5.10178 c 0.93199,2.80598 1.52962,5.59653 1.32806,6.20122 -0.20156,0.60468 -1.1384,-1.34937 -2.08185,-4.34235 z M 25,860.97682 c -4.59951,-0.96648 -5.55479,-1.54003 -5.83466,-3.50311 -0.55547,-3.89615 0.97645,-4.44221 8.77297,-3.12715 7.99213,1.34804 10.06169,0.6 10.06169,-3.6368 0,-2.77542 -1.9834,-3.76009 -9.69969,-4.81546 -5.8373,-0.79838 -7.48329,-2.1216 -6.64183,-5.33938 0.68551,-2.62137 3.17609,-2.7939 11.62677,-0.80543 9.21013,2.16718 11.96417,6.25378 9.75172,14.47017 -2.03152,7.54449 -6.43653,9.19473 -18.03697,6.75716 z m 29.60629,-16.79183 c 0.28146,-0.45542 1.55394,-0.82803 2.82773,-0.82803 1.27379,0 3.6793,-0.27266 5.34557,-0.60592 2.95558,-0.59111 3.99001,-2.30121 6.82757,-11.28721 0.24195,-0.76622 0.6528,-1.18025 0.91298,-0.92006 0.55561,0.55561 -2.38028,10.97285 -3.39539,12.04765 -0.9883,1.04641 -13.13601,2.59278 -12.51846,1.59357 z m 22.08404,-2.57803 c -0.23523,-0.4125 -0.99544,-2.55 -1.68934,-4.75 -0.6939,-2.2 -1.74379,-4.675 -2.33308,-5.5 -0.89043,-1.24657 -0.8319,-1.28609 0.3464,-0.23392 0.77982,0.69634 2.33311,3.17134 3.45177,5.5 1.96086,4.08183 2.20131,4.23392 6.69368,4.23392 2.56287,0 5.00037,0.3375 5.41667,0.75 0.4163,0.4125 -1.99154,0.75 -5.35075,0.75 -3.3592,0 -6.30011,-0.3375 -6.53535,-0.75 z m -42.01321,-6.94371 c -4.85258,-1.93741 -9.06663,-4.15777 -9.36455,-4.93414 -0.82389,-2.14701 3.54368,-12.88848 6.2894,-15.46795 2.00584,-1.88439 2.89808,-2.11442 5.14128,-1.32553 1.49283,0.525 3.27201,2.07207 3.95372,3.43794 1.13647,2.277 1.70741,2.4544 6.87001,2.13457 5.5032,-0.34093 5.6147,-0.2957 4.9308,2 -0.90015,3.0216 -3.25715,4.84882 -6.25465,4.84882 -2.64032,0 -6.24313,1.64467 -6.24313,2.84997 0,0.42878 1.575,1.53067 3.5,2.44864 3.61146,1.72218 4.51766,4.28373 2.3,6.50139 -1.49497,1.49497 -0.66839,1.68028 -11.12288,-2.49371 z m 1.82004,-10.29734 c 0.73951,-2.32998 -0.0704,-4.00895 -1.93373,-4.00895 -1.92578,0 -3.87951,2.73393 -3.20669,4.48727 0.84039,2.19002 4.39861,1.85893 5.14042,-0.47832 z m 55.18897,-0.47917 c -4.16605,-4.22584 -4.59193,-4.41719 -7.78995,-3.5 -5.31409,1.52405 -7.91876,1.00109 -2.89618,-0.5815 6.93329,-2.18463 8.13725,-1.83347 12.32306,3.59432 2.10268,2.72657 3.58613,4.9574 3.29656,4.9574 -0.28958,0 -2.50965,-2.0116 -4.93349,-4.47022 z m 6.9733,-1.28097 c 0.0877,-3.16185 0.20019,-6.27514 0.25,-6.91844 0.0952,-1.22891 9.85527,-4.899 10.72235,-4.03192 0.27623,0.27622 -1.21543,1.05571 -3.31478,1.73221 -5.78872,1.86535 -6.317,2.62568 -6.317,9.09178 0,3.23266 -0.3375,5.87702 -0.75,5.87637 -0.4125,-6.5e-4 -0.67825,-2.58815 -0.59057,-5.75 z m -22.65515,-4.47206 c -0.002,-0.39779 0.98415,-2.75773 2.19223,-5.24432 l 2.1965,-4.52107 -3.25851,-4.62289 c -4.20717,-5.96875 -3.61202,-7.90246 2.1337,-6.93265 8.29501,1.40009 8.97103,1.25551 11.48302,-2.45582 1.30291,-1.925 2.85343,-3.67051 3.44559,-3.87891 1.52131,-0.5354 -5.1069,8.90718 -6.67469,9.5088 -0.70876,0.27197 -2.97114,-0.20849 -5.02751,-1.0677 C 78.85525,797.39853 75,796.85095 75,797.85465 c 0,0.27372 1.575,2.68997 3.5,5.36943 1.925,2.67945 3.49807,5.268 3.49572,5.75231 -0.002,0.48431 -1.35043,2.90557 -2.99572,5.38057 -1.64529,2.475 -2.99336,4.17454 -2.99572,3.77675 z m -33.58014,-4.67186 c -5.65718,-2.56938 -8.14699,-7.74887 -6.44911,-13.41589 1.644,-5.48719 6.00104,-9.689 10.04692,-9.689 6.69146,0 13.96371,5.95041 13.97431,11.43428 0.007,3.48841 -4.12857,10.58278 -7.04901,12.093 -3.68835,1.90732 -5.55897,1.83224 -10.52311,-0.42239 z M 52.8,807.15696 c 3.31293,-3.31293 -1.14519,-9.8 -6.73486,-9.8 -6.69889,0 -6.74847,7.83315 -0.0651,10.29056 2.61654,0.96209 5.55967,0.74977 6.8,-0.49056 z m 51.72155,-0.0368 c -6.93012,-2.64143 -7.30624,-3.11785 -7.68529,-9.73482 -0.40017,-6.98556 0.28215,-6.8664 1.66418,0.29064 0.91813,4.75465 1.36098,5.36284 5.38224,7.39169 2.40999,1.21591 4.88479,2.3918 5.49956,2.61309 0.61477,0.22129 0.89276,0.61263 0.61776,0.86965 -0.275,0.25701 -2.7403,-0.3866 -5.47845,-1.43025 z M 55.09343,789.24594 C 50.64204,785.88488 47,782.38966 47,781.47877 c 0,-0.91089 2.0599,-4.01093 4.57755,-6.88899 5.23277,-5.98184 8.61342,-6.78735 12.24814,-2.91837 2.70164,2.87577 2.76037,6.00122 0.19087,10.15876 l -1.98344,3.20927 2.48344,2.33308 C 65.88245,788.65571 67,790.43715 67,791.33127 c 0,1.65669 -1.82813,4.02569 -3.10658,4.02569 -0.38861,0 -4.34861,-2.74996 -8.79999,-6.11102 z m 4.72612,-10.6492 c 0.25679,-1.79986 -0.16412,-2.23978 -2.14301,-2.23978 -2.78362,0 -4.10209,2.17445 -2.36921,3.90733 1.74229,1.74229 4.15284,0.85145 4.51222,-1.66755 z m 56.04551,12.51022 c -1.76567,-6.17505 -2.48358,-6.75 -8.42849,-6.75 -2.92519,0 -5.52861,-0.3375 -5.78538,-0.75 -0.25676,-0.4125 2.61747,-0.60152 6.38718,-0.42005 l 6.85401,0.32995 1.70126,5.17005 c 0.9357,2.84353 2.19742,5.50066 2.80382,5.90474 0.6864,0.45739 0.45718,0.74046 -0.60732,0.75 -1.15958,0.0104 -2.10095,-1.35246 -2.92508,-4.23469 z m 5.5475,1.19165 c 0.29114,-1.4071 1.22345,-4.2196 2.07181,-6.25001 1.34436,-3.21749 1.97422,-3.69164 4.90405,-3.69164 1.84887,0 4.76783,-0.28125 6.48658,-0.625 1.94975,-0.38995 3.125,-0.22068 3.125,0.4501 0,0.60737 -2.50154,1.20557 -5.75,1.375 l -5.75,0.2999 -2.80839,5.5 c -1.54462,3.025 -2.57019,4.34874 -2.27905,2.94165 z M 101,780.6116 c 0,-0.4783 2.07252,-2.33049 4.6056,-4.11596 3.95185,-2.78553 4.53299,-3.62904 4.09406,-5.94251 -1.69815,-8.95053 -1.61236,-10.34553 0.26231,-4.26534 1.25305,4.06406 1.64153,6.842 1.05556,7.54804 C 109.33722,775.86048 101,781.4997 101,780.6116 z m 139.86207,-3.28627 c -2.5432,-4.52501 -4.92752,-5.50538 -11.27391,-4.63551 C 225.56991,773.24058 223,772.25369 223,770.15984 c 0,-0.43842 1.66525,-2.64035 3.70056,-4.8932 l 3.70056,-4.09608 -2.79746,-4.97656 c -1.53861,-2.73711 -2.58337,-5.19066 -2.32171,-5.45232 0.26166,-0.26167 1.91692,2.07785 3.67835,5.19892 l 3.20259,5.67469 -4.28559,4.36669 c -5.22292,5.32177 -4.48879,6.6101 2.9818,5.23277 2.9475,-0.54342 5.9231,-0.77161 6.61243,-0.50709 1.61128,0.61831 7.81227,10.6493 6.58321,10.6493 -0.50972,0 -1.94643,-1.81423 -3.19267,-4.03163 z m 6.52095,-2.13818 1.13019,-6.31698 6.31698,-1.13019 c 3.59293,-0.64282 5.91295,-0.72616 5.38004,-0.19325 -0.51531,0.51531 -3.13106,1.25079 -5.81277,1.63439 l -4.87584,0.69746 -0.69746,4.87584 c -0.3836,2.68171 -1.11908,5.29746 -1.63439,5.81277 -0.53291,0.53291 -0.44957,-1.78711 0.19325,-5.38004 z m -112.90089,1.49566 c -2.19017,-1.47078 -4.28577,-3.13006 -4.65689,-3.68728 -0.37112,-0.55722 0.19115,-3.29136 1.24949,-6.07585 1.05835,-2.7845 1.92449,-5.40022 1.92477,-5.81272 9.8e-4,-1.46943 -2.20189,-0.70683 -6.4995,2.25 -2.39819,1.65 -4.91488,3 -5.59263,3 -1.20178,0 -10.90737,-5.84866 -10.90737,-6.57286 0,-0.70859 3.53171,0.93762 5.88486,2.74308 3.25712,2.49903 6.33809,2.29683 10.76359,-0.7064 6.38449,-4.33263 8.55461,-1.68916 5.22739,6.36759 -1.36794,3.31244 -1.35016,3.35355 3.12419,7.22016 5.26817,4.5526 5.07429,5.02964 -0.5179,1.27428 z M 69.22497,771.08344 C 65.25124,767.08301 62,763.35642 62,762.80214 c 0,-1.77432 11.75501,-12.71463 12.90067,-12.00657 1.84324,1.13919 1.24473,3.04791 -1.90067,6.06139 -1.65,1.5808 -3,3.43843 -3,4.12807 0,2.68125 2.31434,2.45959 5.38401,-0.51565 C 78.57847,757.37319 82,756.34175 82,758.47494 c 0,0.6149 -1.3734,2.6822 -3.052,4.59402 -3.29567,3.75356 -3.40778,5.62144 -0.36463,6.07545 1.19528,0.17833 3.53071,-1.34691 6.15196,-4.01777 l 4.22526,-4.30522 -2.66468,-9.87372 -2.66467,-9.87372 2.29516,-1.85851 c 1.26234,-1.02218 2.9064,-1.85851 3.65346,-1.85851 0.74706,0 4.80494,2.25 9.01752,5 7.36648,4.80889 9.40262,5.75051 9.40262,4.34826 0,-0.35845 -2.04408,-4.19556 -4.54239,-8.5269 -2.49832,-4.33134 -4.25227,-8.34459 -3.89767,-8.91834 1.57155,-2.54283 4.97016,-2.64128 9.65682,-0.27974 4.56385,2.29968 7.78324,3.02885 7.78324,1.76287 0,-0.33761 -0.98774,-2.3713 -2.19499,-4.51929 -2.02193,-3.59755 -2.06747,-4.03298 -0.57754,-5.5229 2.50885,-2.50885 4.08818,-1.17544 9.11355,7.69449 4.99372,8.81404 5.31478,9.90575 3.45898,11.76155 -1.81222,1.81221 -4.34684,1.46332 -9.93268,-1.36723 -2.7864,-1.41198 -5.33132,-2.30211 -5.65536,-1.97806 -0.32405,0.32404 0.37268,2.56895 1.54828,4.98869 l 2.13745,4.39951 -4.49795,3.68574 c -3.44914,2.8263 -5.12282,3.56628 -7.17777,3.17345 -3.42534,-0.6548 -8.21856,2.61558 -8.23106,5.61599 -0.01,2.35794 -15.2802,19.68191 -17.3488,19.68191 -0.65569,0 -4.4434,-3.27308 -8.41714,-7.27352 z M 96,748.78516 c 0,-1.19593 -2.88737,-3.4282 -4.43426,-3.4282 -1.01513,0 -0.59453,3.57121 0.55612,4.72185 C 93.50468,751.46163 96,750.62925 96,748.78515 z m 54.45612,24.5008 c -0.36405,-0.58905 -0.37033,-3.01543 -0.0139,-5.39197 0.58163,-3.87859 0.3736,-4.53678 -2.03197,-6.429 -1.474,-1.15941 -3.20827,-2.10803 -3.85398,-2.10803 -0.64571,0 -2.04752,-0.68097 -3.11514,-1.51327 -1.33785,-1.04297 -0.24783,-0.8678 3.50731,0.56362 2.99664,1.1423 5.83039,2.31296 6.29721,2.60147 0.68213,0.42158 0.7434,13.32401 0.0634,13.34288 -0.10504,0.003 -0.48885,-0.47665 -0.8529,-1.0657 z m 6.78381,-3.64262 4.71362,-4.71361 4.77322,1.32469 c 2.62528,0.72859 5.56073,1.5522 6.52323,1.83025 2.49551,0.72092 2.20299,-1.59681 -0.75,-5.94252 -1.375,-2.0235 -2.5,-4.28663 -2.5,-5.02919 0,-0.74256 1.8,-3.10776 4,-5.256 2.2,-2.14824 4,-3.44876 4,-2.89004 0,0.55872 -1.35,2.30924 -3,3.89004 -3.5699,3.42018 -3.67063,4.53446 -0.86171,9.53227 3.60429,6.41297 0.98936,8.59032 -6.539,5.44477 -4.15671,-1.73679 -5.57451,-1.25127 -10.03638,3.4369 -1.6154,1.69733 -3.40948,3.08606 -3.98684,3.08606 -0.57737,0 1.07137,-2.12113 3.66386,-4.71362 z m 46.68438,0.1218 c -4.11634,-4.40076 -5.20566,-4.57069 -10.80497,-1.68556 -8.04638,4.14603 -8.81707,2.07804 -3.6848,-9.88748 0.49317,-1.14979 -0.41651,-2.9163 -2.94034,-5.70988 -2.77849,-3.07545 -3.49,-4.56314 -2.9684,-6.20655 0.60763,-1.91448 1.18556,-2.09306 5.05659,-1.56247 5.94289,0.81456 7.11749,0.16953 9.98085,-5.48103 1.35875,-2.68137 2.85559,-4.87521 3.32632,-4.87521 0.47073,0 -0.54935,2.7393 -2.26684,6.08732 l -3.12272,6.08733 -5.74961,-0.49246 c -3.29775,-0.28246 -6.01196,-0.068 -6.36481,0.50294 -0.33835,0.54747 1.01147,2.66126 2.99962,4.6973 4.15939,4.25961 4.37083,5.7153 1.6148,11.11757 -2.04927,4.0169 -2.58307,7.00398 -1.25,6.99488 0.4125,-0.003 2.55,-1.11378 4.75,-2.46879 5.40042,-3.32621 7.5049,-3.14799 11.5,0.97391 1.86578,1.925 3.77543,3.5 4.24366,3.5 0.46823,0 0.71745,-3.2169 0.55383,-7.14867 l -0.29749,-7.14867 5.25,-3.38064 c 2.8875,-1.85935 5.24191,-3.02995 5.23203,-2.60133 -0.01,0.42862 -2.25988,2.24527 -5,4.037 -5.3843,3.52072 -5.42264,3.61934 -3.92753,10.10364 1.60944,6.98019 -1.61621,9.37271 -6.13019,4.54685 z m 87.25094,-8.52606 c -3.95865,-3.16088 -6.12443,-5.57217 -5.78928,-6.44555 1.18565,-3.08977 11.95031,-16.43657 13.25666,-16.43657 2.47953,0 14.30551,9.97157 13.69936,11.55118 -0.79724,2.07758 -2.47903,1.79882 -6.34199,-1.05118 -1.86371,-1.375 -3.94958,-2.5 -4.63526,-2.5 -2.83716,0 -2.36906,2.37206 1.01926,5.165 5.78252,4.76644 3.7551,8.44937 -2.11113,3.835 -1.39842,-1.1 -3.3819,-2 -4.40773,-2 -3.16565,0 -2.10356,3.24012 2.30737,7.03909 2.54251,2.18977 3.88674,4.05602 3.44099,4.77727 -1.34639,2.1785 -4.06691,1.15312 -10.43825,-3.93424 z M 256,762.74423 c -6.98657,-3.37733 -7.26184,-3.82318 -6.48627,-10.50559 0.83348,-7.1813 -0.0698,-7.46738 -6.08136,-1.9261 l -4.2913,3.95558 -6.18334,-2.66798 c -3.40084,-1.46739 -5.71586,-2.8238 -5.14449,-3.01426 0.57137,-0.19046 3.07245,0.58012 5.55794,1.7124 2.4855,1.13227 4.90551,2.05868 5.37779,2.05868 0.47228,0 2.40221,-1.59251 4.28874,-3.5389 2.12619,-2.19368 4.19642,-3.42909 5.44616,-3.25 1.72317,0.24692 2.08878,1.23339 2.51613,6.7889 0.46153,5.99993 0.7308,6.61768 3.5,8.02964 5.19817,2.65045 6.99895,3.80904 6.49167,4.17665 -0.27042,0.19597 -2.51667,-0.62259 -4.99167,-1.81902 z m -113.5,-9.83649 c 1.65,-0.80332 3.68737,-1.48087 4.52749,-1.50568 3.37723,-0.0997 5.97214,-3.06905 5.98782,-6.8518 0.008,-2.03132 0.44693,-4.3683 0.97447,-5.1933 0.89074,-1.39301 0.4575,7.47279 -0.52275,10.69759 -0.34619,1.13886 -4.39021,2.52264 -10.96703,3.75268 l -3,0.56108 3,-1.46057 z m 131.80834,-3.74524 c -1.20542,-0.58251 -2.42184,-1.65895 -2.70318,-2.39208 -0.67149,-1.74988 3.18961,-21.60823 4.44552,-22.86414 0.62872,-0.62872 1.70557,-0.23751 3.05178,1.10869 2.02344,2.02345 2.03679,2.24983 0.48889,8.29188 -2.5392,9.91147 -2.08763,10.20787 5.40865,3.55011 2.78672,-2.475 5.67164,-4.5 6.41093,-4.5 1.62538,0 3.913,2.57053 3.43361,3.85824 -0.42899,1.15234 -16.7837,14.16686 -17.6862,14.07408 -0.36209,-0.0372 -1.64459,-0.54428 -2.85,-1.12678 z m -61.1617,-0.83366 c -2.94435,-0.42823 -5.72226,-1.15959 -6.17314,-1.62524 -0.45088,-0.46565 -1.24928,-3.24405 -1.77423,-6.17423 -0.5472,-3.05438 -0.57073,-4.94387 -0.0552,-4.42829 0.49462,0.49461 1.23819,2.88446 1.65239,5.31077 0.74516,4.36499 0.80742,4.42218 5.90923,5.42829 2.83588,0.55925 5.48722,1.35432 5.89187,1.76682 0.40465,0.4125 0.54822,0.69386 0.31906,0.62524 -0.22917,-0.0686 -2.82568,-0.47512 -5.77003,-0.90336 z m -51.23122,-2.25331 c -4.54473,-6.3631 -4.90235,-7.92113 -0.77096,-3.35878 4.39597,4.85452 4.40507,4.85859 8.37815,3.75558 2.18756,-0.60732 4.87739,-1.06649 5.97739,-1.02038 2.47017,0.10355 -7.22601,2.87113 -10,2.8543 -1.1,-0.007 -2.71306,-1.0105 -3.58458,-2.23072 z M 258.25,740.69468 c -2.05769,-0.8303 -1.45799,-3.60782 2.74162,-12.69787 4.08445,-8.84077 6.18585,-10.5408 8.93493,-7.22835 0.92541,1.11505 0.23041,3.42524 -3.3093,11 -4.21538,9.02067 -5.29057,10.16769 -8.36725,8.92622 z m -13.79044,-6.75335 c -1.93211,-1.42239 -1.92139,-1.54949 0.76538,-9.07437 l 2.72495,-7.63178 -2.96862,-1.68911 c -3.12258,-1.77671 -3.52621,-2.77981 -2.05425,-5.10526 0.75071,-1.186 2.13391,-0.96481 8.51108,1.36108 9.04217,3.29786 11.95594,5.36463 11.0161,7.81383 -0.77547,2.02084 -1.79597,2.16388 -4.6273,0.6486 -2.72655,-1.45921 -3.58538,-0.47508 -6.74632,7.73053 -1.41932,3.68448 -3.04878,6.85431 -3.62102,7.04406 -0.57224,0.18975 -1.92224,-0.30416 -3,-1.09758 z m -105.76698,-10.4836 c -3.25376,-10.8696 -3.33592,-12.76181 -0.59192,-13.63272 2.8759,-0.91277 3.33509,-0.21734 6.40076,9.69365 3.10226,10.02929 3.00394,12.21882 -0.56739,12.63614 -2.40034,0.28048 -2.70577,-0.22632 -5.24145,-8.69707 z m 94.73448,7.13392 c -0.59012,-0.40408 -1.35645,-1.50384 -1.70297,-2.44391 -0.96296,-2.61246 -6.70323,-3.85935 -9.56828,-2.07841 -1.5412,0.95802 -3.25392,1.20013 -5,0.70678 -1.4607,-0.41272 -3.93263,-0.85018 -5.49319,-0.97215 -4.60024,-0.35953 -4.84957,-1.26488 -3.45267,-12.53705 1.15255,-9.30041 1.51255,-10.44174 3.37756,-10.70821 3.70901,-0.52993 4.31941,1.55623 3.26335,11.15315 -0.53592,4.8702 -0.75155,9.07776 -0.47916,9.35014 1.00385,1.00385 2.94264,-1.1247 7.79532,-8.55825 2.73359,-4.18744 5.41838,-7.89055 5.96622,-8.22912 1.37696,-0.85102 5.61484,0.0614 6.70258,1.44308 0.84908,1.07851 3.16418,16.77773 3.16418,21.45698 0,2.20793 -2.35303,2.93703 -4.57294,1.41697 z M 231,718.02363 c 0,-3.00972 -0.9708,-3.9358 -2.65799,-2.53555 -2.09057,1.73502 -1.66706,4.86888 0.65799,4.86888 1.42857,0 2,-0.66667 2,-2.33333 z m -79.49505,10.08333 c -1.19029,-3.44187 -3.58636,-19.09546 -3.1121,-20.33138 1.08916,-2.83828 5.87024,-1.57684 10.22602,2.69804 2.30702,2.26417 4.6279,3.84886 5.15752,3.52154 0.55825,-0.34502 0.65933,-2.25546 0.2405,-4.54586 -0.87387,-4.77882 -0.0537,-6.37773 3.04173,-5.92983 2.12058,0.30684 2.49469,1.24576 4.11884,10.33749 0.98252,5.5 1.58366,10.5625 1.33586,11.25 -0.9779,2.71308 -6.03492,1.32425 -10.01332,-2.75 -5.26789,-5.39481 -6.6337,-5.2546 -5.83143,0.59862 0.46468,3.3902 0.26257,4.83147 -0.76913,5.48469 -1.99688,1.26433 -3.89169,1.12062 -4.39449,-0.33331 z m 25.45391,-2.77543 c -1.34906,-0.83376 -2.97817,-20.32529 -1.8512,-22.14876 0.34019,-0.55044 1.69263,-0.84892 3.00543,-0.6633 2.04296,0.28886 2.48236,1.05798 3.0493,5.33749 0.36432,2.75 0.70182,7.76002 0.75,11.13337 0.0745,5.21456 -0.19542,6.20738 -1.80169,6.62743 -1.03912,0.27174 -2.45745,0.14293 -3.15184,-0.28623 z M 193,717.54583 c 0,-8.45007 -0.62237,-9.73751 -5,-10.34305 -1.90778,-0.2639 -2.5,-0.93804 -2.5,-2.84582 0,-2.47329 0.10257,-2.50304 9.59901,-2.78439 7.62503,-0.22591 9.85872,0.0285 10.86188,1.23726 1.77451,2.13816 0.55229,4.54713 -2.30706,4.54713 -3.62699,0 -4.52901,1.86588 -4.85588,10.04468 -0.29196,7.30535 -0.35327,7.46169 -3.04795,7.77174 l -2.75,0.31642 0,-7.94397 z"
         id="path2831" />
    </g>
  </g>
</svg>
